%TF.GenerationSoftware,KiCad,Pcbnew,7.0.9*%
%TF.CreationDate,2023-12-25T10:03:32-05:00*%
%TF.ProjectId,pcb_ac_interface,7063625f-6163-45f6-996e-746572666163,rev?*%
%TF.SameCoordinates,Original*%
%TF.FileFunction,Legend,Bot*%
%TF.FilePolarity,Positive*%
%FSLAX46Y46*%
G04 Gerber Fmt 4.6, Leading zero omitted, Abs format (unit mm)*
G04 Created by KiCad (PCBNEW 7.0.9) date 2023-12-25 10:03:32*
%MOMM*%
%LPD*%
G01*
G04 APERTURE LIST*
%ADD10C,0.150000*%
%ADD11C,0.120000*%
G04 APERTURE END LIST*
D10*
X140461904Y-111214819D02*
X140461904Y-112024342D01*
X140461904Y-112024342D02*
X140414285Y-112119580D01*
X140414285Y-112119580D02*
X140366666Y-112167200D01*
X140366666Y-112167200D02*
X140271428Y-112214819D01*
X140271428Y-112214819D02*
X140080952Y-112214819D01*
X140080952Y-112214819D02*
X139985714Y-112167200D01*
X139985714Y-112167200D02*
X139938095Y-112119580D01*
X139938095Y-112119580D02*
X139890476Y-112024342D01*
X139890476Y-112024342D02*
X139890476Y-111214819D01*
X138890476Y-112214819D02*
X139461904Y-112214819D01*
X139176190Y-112214819D02*
X139176190Y-111214819D01*
X139176190Y-111214819D02*
X139271428Y-111357676D01*
X139271428Y-111357676D02*
X139366666Y-111452914D01*
X139366666Y-111452914D02*
X139461904Y-111500533D01*
X148874819Y-73493333D02*
X148398628Y-73160000D01*
X148874819Y-72921905D02*
X147874819Y-72921905D01*
X147874819Y-72921905D02*
X147874819Y-73302857D01*
X147874819Y-73302857D02*
X147922438Y-73398095D01*
X147922438Y-73398095D02*
X147970057Y-73445714D01*
X147970057Y-73445714D02*
X148065295Y-73493333D01*
X148065295Y-73493333D02*
X148208152Y-73493333D01*
X148208152Y-73493333D02*
X148303390Y-73445714D01*
X148303390Y-73445714D02*
X148351009Y-73398095D01*
X148351009Y-73398095D02*
X148398628Y-73302857D01*
X148398628Y-73302857D02*
X148398628Y-72921905D01*
X147970057Y-73874286D02*
X147922438Y-73921905D01*
X147922438Y-73921905D02*
X147874819Y-74017143D01*
X147874819Y-74017143D02*
X147874819Y-74255238D01*
X147874819Y-74255238D02*
X147922438Y-74350476D01*
X147922438Y-74350476D02*
X147970057Y-74398095D01*
X147970057Y-74398095D02*
X148065295Y-74445714D01*
X148065295Y-74445714D02*
X148160533Y-74445714D01*
X148160533Y-74445714D02*
X148303390Y-74398095D01*
X148303390Y-74398095D02*
X148874819Y-73826667D01*
X148874819Y-73826667D02*
X148874819Y-74445714D01*
X132069819Y-73493333D02*
X131593628Y-73160000D01*
X132069819Y-72921905D02*
X131069819Y-72921905D01*
X131069819Y-72921905D02*
X131069819Y-73302857D01*
X131069819Y-73302857D02*
X131117438Y-73398095D01*
X131117438Y-73398095D02*
X131165057Y-73445714D01*
X131165057Y-73445714D02*
X131260295Y-73493333D01*
X131260295Y-73493333D02*
X131403152Y-73493333D01*
X131403152Y-73493333D02*
X131498390Y-73445714D01*
X131498390Y-73445714D02*
X131546009Y-73398095D01*
X131546009Y-73398095D02*
X131593628Y-73302857D01*
X131593628Y-73302857D02*
X131593628Y-72921905D01*
X132069819Y-74445714D02*
X132069819Y-73874286D01*
X132069819Y-74160000D02*
X131069819Y-74160000D01*
X131069819Y-74160000D02*
X131212676Y-74064762D01*
X131212676Y-74064762D02*
X131307914Y-73969524D01*
X131307914Y-73969524D02*
X131355533Y-73874286D01*
X140433094Y-72994819D02*
X140433094Y-71994819D01*
X140433094Y-71994819D02*
X140194999Y-71994819D01*
X140194999Y-71994819D02*
X140052142Y-72042438D01*
X140052142Y-72042438D02*
X139956904Y-72137676D01*
X139956904Y-72137676D02*
X139909285Y-72232914D01*
X139909285Y-72232914D02*
X139861666Y-72423390D01*
X139861666Y-72423390D02*
X139861666Y-72566247D01*
X139861666Y-72566247D02*
X139909285Y-72756723D01*
X139909285Y-72756723D02*
X139956904Y-72851961D01*
X139956904Y-72851961D02*
X140052142Y-72947200D01*
X140052142Y-72947200D02*
X140194999Y-72994819D01*
X140194999Y-72994819D02*
X140433094Y-72994819D01*
X138909285Y-72994819D02*
X139480713Y-72994819D01*
X139194999Y-72994819D02*
X139194999Y-71994819D01*
X139194999Y-71994819D02*
X139290237Y-72137676D01*
X139290237Y-72137676D02*
X139385475Y-72232914D01*
X139385475Y-72232914D02*
X139480713Y-72280533D01*
D11*
%TO.C,U1*%
X147750000Y-104970000D02*
X146480000Y-104970000D01*
X147750000Y-106240000D02*
X147750000Y-104970000D01*
X147500000Y-105220000D02*
X131900000Y-105220000D01*
X147500000Y-113220000D02*
X147500000Y-105220000D01*
X131900000Y-105220000D02*
X131900000Y-113220000D01*
X131900000Y-113220000D02*
X147500000Y-113220000D01*
%TO.C,R2*%
X147420000Y-70390000D02*
X147090000Y-70390000D01*
X147090000Y-76930000D02*
X147420000Y-76930000D01*
X145010000Y-76930000D02*
X144680000Y-76930000D01*
X144680000Y-76930000D02*
X144680000Y-70390000D01*
X147420000Y-76930000D02*
X147420000Y-70390000D01*
X144680000Y-70390000D02*
X145010000Y-70390000D01*
%TO.C,R1*%
X135355000Y-76930000D02*
X135025000Y-76930000D01*
X132615000Y-70390000D02*
X132615000Y-76930000D01*
X135355000Y-70390000D02*
X135355000Y-76930000D01*
X135025000Y-70390000D02*
X135355000Y-70390000D01*
X132945000Y-70390000D02*
X132615000Y-70390000D01*
X132615000Y-76930000D02*
X132945000Y-76930000D01*
%TO.C,D1*%
X137135000Y-70125000D02*
X137135000Y-67035000D01*
X137135000Y-70124830D02*
G75*
G03*
X142685000Y-68579538I2560000J1544830D01*
G01*
X142684999Y-68580462D02*
G75*
G03*
X137135001Y-67035170I-2989999J462D01*
G01*
X142195000Y-68580000D02*
G75*
G03*
X142195000Y-68580000I-2500000J0D01*
G01*
%TD*%
M02*
