%TF.GenerationSoftware,KiCad,Pcbnew,7.0.9*%
%TF.CreationDate,2023-12-25T10:03:32-05:00*%
%TF.ProjectId,pcb_ac_interface,7063625f-6163-45f6-996e-746572666163,rev?*%
%TF.SameCoordinates,Original*%
%TF.FileFunction,Soldermask,Bot*%
%TF.FilePolarity,Negative*%
%FSLAX46Y46*%
G04 Gerber Fmt 4.6, Leading zero omitted, Abs format (unit mm)*
G04 Created by KiCad (PCBNEW 7.0.9) date 2023-12-25 10:03:32*
%MOMM*%
%LPD*%
G01*
G04 APERTURE LIST*
%ADD10R,1.701800X1.701800*%
%ADD11C,1.701800*%
%ADD12C,2.100000*%
G04 APERTURE END LIST*
D10*
%TO.C,A1*%
X129540000Y-69850000D03*
D11*
X129540000Y-72390000D03*
X129540000Y-74930000D03*
X129540000Y-77470000D03*
X129540000Y-80010000D03*
X129540000Y-82550000D03*
X129540000Y-85090000D03*
X129540000Y-87630000D03*
X129540000Y-90170000D03*
X129540000Y-92710000D03*
X129540000Y-95250000D03*
X129540000Y-97790000D03*
X129540000Y-100330000D03*
X129540000Y-102870000D03*
X129540000Y-105410000D03*
X129540000Y-107950000D03*
X149860000Y-107950000D03*
X149860000Y-105410000D03*
X149860000Y-102870000D03*
X149860000Y-100330000D03*
X149860000Y-97790000D03*
X149860000Y-95250000D03*
X149860000Y-92710000D03*
X149860000Y-90170000D03*
X149860000Y-87630000D03*
X149860000Y-85090000D03*
X149860000Y-82550000D03*
X149860000Y-80010000D03*
%TD*%
D12*
%TO.C,H4*%
X130810000Y-111760000D03*
%TD*%
%TO.C,H3*%
X148590000Y-111760000D03*
%TD*%
%TO.C,H2*%
X148590000Y-66040000D03*
%TD*%
%TO.C,H1*%
X130810000Y-66040000D03*
%TD*%
D10*
%TO.C,U1*%
X143510000Y-107820000D03*
D11*
X140970000Y-107820000D03*
X138430000Y-107820000D03*
X135890000Y-107820000D03*
%TD*%
%TO.C,R2*%
X146050000Y-69850000D03*
X146050000Y-77470000D03*
%TD*%
%TO.C,R1*%
X133985000Y-69850000D03*
X133985000Y-77470000D03*
%TD*%
D10*
%TO.C,D1*%
X138425000Y-68580000D03*
D11*
X140965000Y-68580000D03*
%TD*%
M02*
