%TF.GenerationSoftware,KiCad,Pcbnew,7.0.9*%
%TF.CreationDate,2023-12-25T10:03:38-05:00*%
%TF.ProjectId,pcb_ac_interface,7063625f-6163-45f6-996e-746572666163,rev?*%
%TF.SameCoordinates,Original*%
%TF.FileFunction,Drillmap*%
%TF.FilePolarity,Positive*%
%FSLAX45Y45*%
G04 Gerber Fmt 4.5, Leading zero omitted, Abs format (unit mm)*
G04 Created by KiCad (PCBNEW 7.0.9) date 2023-12-25 10:03:38*
%MOMM*%
%LPD*%
G01*
G04 APERTURE LIST*
%ADD10C,0.100000*%
%ADD11C,0.200000*%
%ADD12C,0.210000*%
G04 APERTURE END LIST*
D10*
X14859000Y-11430000D02*
X13081000Y-11430000D01*
X15113000Y-6604000D02*
X15113000Y-11176000D01*
X13081000Y-6350000D02*
X14859000Y-6350000D01*
X12827000Y-11176000D02*
X12827000Y-6604000D01*
X13081000Y-6350000D02*
G75*
G03*
X12827000Y-6604000I0J-254000D01*
G01*
X12827000Y-11176000D02*
G75*
G03*
X13081000Y-11430000I254000J0D01*
G01*
X14859000Y-11430000D02*
G75*
G03*
X15113000Y-11176000I0J254000D01*
G01*
X15113000Y-6604000D02*
G75*
G03*
X14859000Y-6350000I-254000J0D01*
G01*
D11*
D12*
X12976000Y-6499000D02*
X13186000Y-6709000D01*
X13186000Y-6499000D02*
X12976000Y-6709000D01*
X12976000Y-11071000D02*
X13186000Y-11281000D01*
X13186000Y-11071000D02*
X12976000Y-11281000D01*
X14754000Y-6499000D02*
X14964000Y-6709000D01*
X14964000Y-6499000D02*
X14754000Y-6709000D01*
X14754000Y-11071000D02*
X14964000Y-11281000D01*
X14964000Y-11071000D02*
X14754000Y-11281000D01*
D11*
X13082777Y-11746484D02*
X13082777Y-11546484D01*
X13082777Y-11546484D02*
X13130396Y-11546484D01*
X13130396Y-11546484D02*
X13158967Y-11556008D01*
X13158967Y-11556008D02*
X13178015Y-11575055D01*
X13178015Y-11575055D02*
X13187539Y-11594103D01*
X13187539Y-11594103D02*
X13197062Y-11632198D01*
X13197062Y-11632198D02*
X13197062Y-11660769D01*
X13197062Y-11660769D02*
X13187539Y-11698865D01*
X13187539Y-11698865D02*
X13178015Y-11717912D01*
X13178015Y-11717912D02*
X13158967Y-11736960D01*
X13158967Y-11736960D02*
X13130396Y-11746484D01*
X13130396Y-11746484D02*
X13082777Y-11746484D01*
X13282777Y-11746484D02*
X13282777Y-11613150D01*
X13282777Y-11651246D02*
X13292301Y-11632198D01*
X13292301Y-11632198D02*
X13301824Y-11622674D01*
X13301824Y-11622674D02*
X13320872Y-11613150D01*
X13320872Y-11613150D02*
X13339920Y-11613150D01*
X13406586Y-11746484D02*
X13406586Y-11613150D01*
X13406586Y-11546484D02*
X13397062Y-11556008D01*
X13397062Y-11556008D02*
X13406586Y-11565531D01*
X13406586Y-11565531D02*
X13416110Y-11556008D01*
X13416110Y-11556008D02*
X13406586Y-11546484D01*
X13406586Y-11546484D02*
X13406586Y-11565531D01*
X13530396Y-11746484D02*
X13511348Y-11736960D01*
X13511348Y-11736960D02*
X13501824Y-11717912D01*
X13501824Y-11717912D02*
X13501824Y-11546484D01*
X13635158Y-11746484D02*
X13616110Y-11736960D01*
X13616110Y-11736960D02*
X13606586Y-11717912D01*
X13606586Y-11717912D02*
X13606586Y-11546484D01*
X13863729Y-11746484D02*
X13863729Y-11546484D01*
X13863729Y-11546484D02*
X13930396Y-11689341D01*
X13930396Y-11689341D02*
X13997062Y-11546484D01*
X13997062Y-11546484D02*
X13997062Y-11746484D01*
X14178015Y-11746484D02*
X14178015Y-11641722D01*
X14178015Y-11641722D02*
X14168491Y-11622674D01*
X14168491Y-11622674D02*
X14149443Y-11613150D01*
X14149443Y-11613150D02*
X14111348Y-11613150D01*
X14111348Y-11613150D02*
X14092301Y-11622674D01*
X14178015Y-11736960D02*
X14158967Y-11746484D01*
X14158967Y-11746484D02*
X14111348Y-11746484D01*
X14111348Y-11746484D02*
X14092301Y-11736960D01*
X14092301Y-11736960D02*
X14082777Y-11717912D01*
X14082777Y-11717912D02*
X14082777Y-11698865D01*
X14082777Y-11698865D02*
X14092301Y-11679817D01*
X14092301Y-11679817D02*
X14111348Y-11670293D01*
X14111348Y-11670293D02*
X14158967Y-11670293D01*
X14158967Y-11670293D02*
X14178015Y-11660769D01*
X14273253Y-11613150D02*
X14273253Y-11813150D01*
X14273253Y-11622674D02*
X14292301Y-11613150D01*
X14292301Y-11613150D02*
X14330396Y-11613150D01*
X14330396Y-11613150D02*
X14349443Y-11622674D01*
X14349443Y-11622674D02*
X14358967Y-11632198D01*
X14358967Y-11632198D02*
X14368491Y-11651246D01*
X14368491Y-11651246D02*
X14368491Y-11708388D01*
X14368491Y-11708388D02*
X14358967Y-11727436D01*
X14358967Y-11727436D02*
X14349443Y-11736960D01*
X14349443Y-11736960D02*
X14330396Y-11746484D01*
X14330396Y-11746484D02*
X14292301Y-11746484D01*
X14292301Y-11746484D02*
X14273253Y-11736960D01*
X14454205Y-11727436D02*
X14463729Y-11736960D01*
X14463729Y-11736960D02*
X14454205Y-11746484D01*
X14454205Y-11746484D02*
X14444682Y-11736960D01*
X14444682Y-11736960D02*
X14454205Y-11727436D01*
X14454205Y-11727436D02*
X14454205Y-11746484D01*
X14454205Y-11622674D02*
X14463729Y-11632198D01*
X14463729Y-11632198D02*
X14454205Y-11641722D01*
X14454205Y-11641722D02*
X14444682Y-11632198D01*
X14444682Y-11632198D02*
X14454205Y-11622674D01*
X14454205Y-11622674D02*
X14454205Y-11641722D01*
X12622000Y-11975000D02*
X12822000Y-12175000D01*
X12822000Y-11975000D02*
X12622000Y-12175000D01*
X13073253Y-11985531D02*
X13082777Y-11976008D01*
X13082777Y-11976008D02*
X13101824Y-11966484D01*
X13101824Y-11966484D02*
X13149443Y-11966484D01*
X13149443Y-11966484D02*
X13168491Y-11976008D01*
X13168491Y-11976008D02*
X13178015Y-11985531D01*
X13178015Y-11985531D02*
X13187539Y-12004579D01*
X13187539Y-12004579D02*
X13187539Y-12023627D01*
X13187539Y-12023627D02*
X13178015Y-12052198D01*
X13178015Y-12052198D02*
X13063729Y-12166484D01*
X13063729Y-12166484D02*
X13187539Y-12166484D01*
X13273253Y-12147436D02*
X13282777Y-12156960D01*
X13282777Y-12156960D02*
X13273253Y-12166484D01*
X13273253Y-12166484D02*
X13263729Y-12156960D01*
X13263729Y-12156960D02*
X13273253Y-12147436D01*
X13273253Y-12147436D02*
X13273253Y-12166484D01*
X13473253Y-12166484D02*
X13358967Y-12166484D01*
X13416110Y-12166484D02*
X13416110Y-11966484D01*
X13416110Y-11966484D02*
X13397062Y-11995055D01*
X13397062Y-11995055D02*
X13378015Y-12014103D01*
X13378015Y-12014103D02*
X13358967Y-12023627D01*
X13597062Y-11966484D02*
X13616110Y-11966484D01*
X13616110Y-11966484D02*
X13635158Y-11976008D01*
X13635158Y-11976008D02*
X13644682Y-11985531D01*
X13644682Y-11985531D02*
X13654205Y-12004579D01*
X13654205Y-12004579D02*
X13663729Y-12042674D01*
X13663729Y-12042674D02*
X13663729Y-12090293D01*
X13663729Y-12090293D02*
X13654205Y-12128388D01*
X13654205Y-12128388D02*
X13644682Y-12147436D01*
X13644682Y-12147436D02*
X13635158Y-12156960D01*
X13635158Y-12156960D02*
X13616110Y-12166484D01*
X13616110Y-12166484D02*
X13597062Y-12166484D01*
X13597062Y-12166484D02*
X13578015Y-12156960D01*
X13578015Y-12156960D02*
X13568491Y-12147436D01*
X13568491Y-12147436D02*
X13558967Y-12128388D01*
X13558967Y-12128388D02*
X13549443Y-12090293D01*
X13549443Y-12090293D02*
X13549443Y-12042674D01*
X13549443Y-12042674D02*
X13558967Y-12004579D01*
X13558967Y-12004579D02*
X13568491Y-11985531D01*
X13568491Y-11985531D02*
X13578015Y-11976008D01*
X13578015Y-11976008D02*
X13597062Y-11966484D01*
X13787539Y-11966484D02*
X13806586Y-11966484D01*
X13806586Y-11966484D02*
X13825634Y-11976008D01*
X13825634Y-11976008D02*
X13835158Y-11985531D01*
X13835158Y-11985531D02*
X13844682Y-12004579D01*
X13844682Y-12004579D02*
X13854205Y-12042674D01*
X13854205Y-12042674D02*
X13854205Y-12090293D01*
X13854205Y-12090293D02*
X13844682Y-12128388D01*
X13844682Y-12128388D02*
X13835158Y-12147436D01*
X13835158Y-12147436D02*
X13825634Y-12156960D01*
X13825634Y-12156960D02*
X13806586Y-12166484D01*
X13806586Y-12166484D02*
X13787539Y-12166484D01*
X13787539Y-12166484D02*
X13768491Y-12156960D01*
X13768491Y-12156960D02*
X13758967Y-12147436D01*
X13758967Y-12147436D02*
X13749443Y-12128388D01*
X13749443Y-12128388D02*
X13739920Y-12090293D01*
X13739920Y-12090293D02*
X13739920Y-12042674D01*
X13739920Y-12042674D02*
X13749443Y-12004579D01*
X13749443Y-12004579D02*
X13758967Y-11985531D01*
X13758967Y-11985531D02*
X13768491Y-11976008D01*
X13768491Y-11976008D02*
X13787539Y-11966484D01*
X13939920Y-12166484D02*
X13939920Y-12033150D01*
X13939920Y-12052198D02*
X13949443Y-12042674D01*
X13949443Y-12042674D02*
X13968491Y-12033150D01*
X13968491Y-12033150D02*
X13997063Y-12033150D01*
X13997063Y-12033150D02*
X14016110Y-12042674D01*
X14016110Y-12042674D02*
X14025634Y-12061722D01*
X14025634Y-12061722D02*
X14025634Y-12166484D01*
X14025634Y-12061722D02*
X14035158Y-12042674D01*
X14035158Y-12042674D02*
X14054205Y-12033150D01*
X14054205Y-12033150D02*
X14082777Y-12033150D01*
X14082777Y-12033150D02*
X14101824Y-12042674D01*
X14101824Y-12042674D02*
X14111348Y-12061722D01*
X14111348Y-12061722D02*
X14111348Y-12166484D01*
X14206586Y-12166484D02*
X14206586Y-12033150D01*
X14206586Y-12052198D02*
X14216110Y-12042674D01*
X14216110Y-12042674D02*
X14235158Y-12033150D01*
X14235158Y-12033150D02*
X14263729Y-12033150D01*
X14263729Y-12033150D02*
X14282777Y-12042674D01*
X14282777Y-12042674D02*
X14292301Y-12061722D01*
X14292301Y-12061722D02*
X14292301Y-12166484D01*
X14292301Y-12061722D02*
X14301824Y-12042674D01*
X14301824Y-12042674D02*
X14320872Y-12033150D01*
X14320872Y-12033150D02*
X14349443Y-12033150D01*
X14349443Y-12033150D02*
X14368491Y-12042674D01*
X14368491Y-12042674D02*
X14378015Y-12061722D01*
X14378015Y-12061722D02*
X14378015Y-12166484D01*
X14768491Y-11956960D02*
X14597063Y-12214103D01*
X15025634Y-11966484D02*
X15044682Y-11966484D01*
X15044682Y-11966484D02*
X15063729Y-11976008D01*
X15063729Y-11976008D02*
X15073253Y-11985531D01*
X15073253Y-11985531D02*
X15082777Y-12004579D01*
X15082777Y-12004579D02*
X15092301Y-12042674D01*
X15092301Y-12042674D02*
X15092301Y-12090293D01*
X15092301Y-12090293D02*
X15082777Y-12128388D01*
X15082777Y-12128388D02*
X15073253Y-12147436D01*
X15073253Y-12147436D02*
X15063729Y-12156960D01*
X15063729Y-12156960D02*
X15044682Y-12166484D01*
X15044682Y-12166484D02*
X15025634Y-12166484D01*
X15025634Y-12166484D02*
X15006586Y-12156960D01*
X15006586Y-12156960D02*
X14997063Y-12147436D01*
X14997063Y-12147436D02*
X14987539Y-12128388D01*
X14987539Y-12128388D02*
X14978015Y-12090293D01*
X14978015Y-12090293D02*
X14978015Y-12042674D01*
X14978015Y-12042674D02*
X14987539Y-12004579D01*
X14987539Y-12004579D02*
X14997063Y-11985531D01*
X14997063Y-11985531D02*
X15006586Y-11976008D01*
X15006586Y-11976008D02*
X15025634Y-11966484D01*
X15178015Y-12147436D02*
X15187539Y-12156960D01*
X15187539Y-12156960D02*
X15178015Y-12166484D01*
X15178015Y-12166484D02*
X15168491Y-12156960D01*
X15168491Y-12156960D02*
X15178015Y-12147436D01*
X15178015Y-12147436D02*
X15178015Y-12166484D01*
X15311348Y-11966484D02*
X15330396Y-11966484D01*
X15330396Y-11966484D02*
X15349444Y-11976008D01*
X15349444Y-11976008D02*
X15358967Y-11985531D01*
X15358967Y-11985531D02*
X15368491Y-12004579D01*
X15368491Y-12004579D02*
X15378015Y-12042674D01*
X15378015Y-12042674D02*
X15378015Y-12090293D01*
X15378015Y-12090293D02*
X15368491Y-12128388D01*
X15368491Y-12128388D02*
X15358967Y-12147436D01*
X15358967Y-12147436D02*
X15349444Y-12156960D01*
X15349444Y-12156960D02*
X15330396Y-12166484D01*
X15330396Y-12166484D02*
X15311348Y-12166484D01*
X15311348Y-12166484D02*
X15292301Y-12156960D01*
X15292301Y-12156960D02*
X15282777Y-12147436D01*
X15282777Y-12147436D02*
X15273253Y-12128388D01*
X15273253Y-12128388D02*
X15263729Y-12090293D01*
X15263729Y-12090293D02*
X15263729Y-12042674D01*
X15263729Y-12042674D02*
X15273253Y-12004579D01*
X15273253Y-12004579D02*
X15282777Y-11985531D01*
X15282777Y-11985531D02*
X15292301Y-11976008D01*
X15292301Y-11976008D02*
X15311348Y-11966484D01*
X15492301Y-12052198D02*
X15473253Y-12042674D01*
X15473253Y-12042674D02*
X15463729Y-12033150D01*
X15463729Y-12033150D02*
X15454206Y-12014103D01*
X15454206Y-12014103D02*
X15454206Y-12004579D01*
X15454206Y-12004579D02*
X15463729Y-11985531D01*
X15463729Y-11985531D02*
X15473253Y-11976008D01*
X15473253Y-11976008D02*
X15492301Y-11966484D01*
X15492301Y-11966484D02*
X15530396Y-11966484D01*
X15530396Y-11966484D02*
X15549444Y-11976008D01*
X15549444Y-11976008D02*
X15558967Y-11985531D01*
X15558967Y-11985531D02*
X15568491Y-12004579D01*
X15568491Y-12004579D02*
X15568491Y-12014103D01*
X15568491Y-12014103D02*
X15558967Y-12033150D01*
X15558967Y-12033150D02*
X15549444Y-12042674D01*
X15549444Y-12042674D02*
X15530396Y-12052198D01*
X15530396Y-12052198D02*
X15492301Y-12052198D01*
X15492301Y-12052198D02*
X15473253Y-12061722D01*
X15473253Y-12061722D02*
X15463729Y-12071246D01*
X15463729Y-12071246D02*
X15454206Y-12090293D01*
X15454206Y-12090293D02*
X15454206Y-12128388D01*
X15454206Y-12128388D02*
X15463729Y-12147436D01*
X15463729Y-12147436D02*
X15473253Y-12156960D01*
X15473253Y-12156960D02*
X15492301Y-12166484D01*
X15492301Y-12166484D02*
X15530396Y-12166484D01*
X15530396Y-12166484D02*
X15549444Y-12156960D01*
X15549444Y-12156960D02*
X15558967Y-12147436D01*
X15558967Y-12147436D02*
X15568491Y-12128388D01*
X15568491Y-12128388D02*
X15568491Y-12090293D01*
X15568491Y-12090293D02*
X15558967Y-12071246D01*
X15558967Y-12071246D02*
X15549444Y-12061722D01*
X15549444Y-12061722D02*
X15530396Y-12052198D01*
X15644682Y-11985531D02*
X15654206Y-11976008D01*
X15654206Y-11976008D02*
X15673253Y-11966484D01*
X15673253Y-11966484D02*
X15720872Y-11966484D01*
X15720872Y-11966484D02*
X15739920Y-11976008D01*
X15739920Y-11976008D02*
X15749444Y-11985531D01*
X15749444Y-11985531D02*
X15758967Y-12004579D01*
X15758967Y-12004579D02*
X15758967Y-12023627D01*
X15758967Y-12023627D02*
X15749444Y-12052198D01*
X15749444Y-12052198D02*
X15635158Y-12166484D01*
X15635158Y-12166484D02*
X15758967Y-12166484D01*
X15825634Y-11966484D02*
X15958967Y-11966484D01*
X15958967Y-11966484D02*
X15873253Y-12166484D01*
X16025634Y-11966484D02*
X16025634Y-12004579D01*
X16101825Y-11966484D02*
X16101825Y-12004579D01*
X16397063Y-12242674D02*
X16387539Y-12233150D01*
X16387539Y-12233150D02*
X16368491Y-12204579D01*
X16368491Y-12204579D02*
X16358968Y-12185531D01*
X16358968Y-12185531D02*
X16349444Y-12156960D01*
X16349444Y-12156960D02*
X16339920Y-12109341D01*
X16339920Y-12109341D02*
X16339920Y-12071246D01*
X16339920Y-12071246D02*
X16349444Y-12023627D01*
X16349444Y-12023627D02*
X16358968Y-11995055D01*
X16358968Y-11995055D02*
X16368491Y-11976008D01*
X16368491Y-11976008D02*
X16387539Y-11947436D01*
X16387539Y-11947436D02*
X16397063Y-11937912D01*
X16558968Y-12033150D02*
X16558968Y-12166484D01*
X16511348Y-11956960D02*
X16463729Y-12099817D01*
X16463729Y-12099817D02*
X16587539Y-12099817D01*
X16816111Y-12166484D02*
X16816111Y-11966484D01*
X16901825Y-12166484D02*
X16901825Y-12061722D01*
X16901825Y-12061722D02*
X16892301Y-12042674D01*
X16892301Y-12042674D02*
X16873253Y-12033150D01*
X16873253Y-12033150D02*
X16844682Y-12033150D01*
X16844682Y-12033150D02*
X16825634Y-12042674D01*
X16825634Y-12042674D02*
X16816111Y-12052198D01*
X17025634Y-12166484D02*
X17006587Y-12156960D01*
X17006587Y-12156960D02*
X16997063Y-12147436D01*
X16997063Y-12147436D02*
X16987539Y-12128388D01*
X16987539Y-12128388D02*
X16987539Y-12071246D01*
X16987539Y-12071246D02*
X16997063Y-12052198D01*
X16997063Y-12052198D02*
X17006587Y-12042674D01*
X17006587Y-12042674D02*
X17025634Y-12033150D01*
X17025634Y-12033150D02*
X17054206Y-12033150D01*
X17054206Y-12033150D02*
X17073253Y-12042674D01*
X17073253Y-12042674D02*
X17082777Y-12052198D01*
X17082777Y-12052198D02*
X17092301Y-12071246D01*
X17092301Y-12071246D02*
X17092301Y-12128388D01*
X17092301Y-12128388D02*
X17082777Y-12147436D01*
X17082777Y-12147436D02*
X17073253Y-12156960D01*
X17073253Y-12156960D02*
X17054206Y-12166484D01*
X17054206Y-12166484D02*
X17025634Y-12166484D01*
X17206587Y-12166484D02*
X17187539Y-12156960D01*
X17187539Y-12156960D02*
X17178015Y-12137912D01*
X17178015Y-12137912D02*
X17178015Y-11966484D01*
X17358968Y-12156960D02*
X17339920Y-12166484D01*
X17339920Y-12166484D02*
X17301825Y-12166484D01*
X17301825Y-12166484D02*
X17282777Y-12156960D01*
X17282777Y-12156960D02*
X17273253Y-12137912D01*
X17273253Y-12137912D02*
X17273253Y-12061722D01*
X17273253Y-12061722D02*
X17282777Y-12042674D01*
X17282777Y-12042674D02*
X17301825Y-12033150D01*
X17301825Y-12033150D02*
X17339920Y-12033150D01*
X17339920Y-12033150D02*
X17358968Y-12042674D01*
X17358968Y-12042674D02*
X17368492Y-12061722D01*
X17368492Y-12061722D02*
X17368492Y-12080769D01*
X17368492Y-12080769D02*
X17273253Y-12099817D01*
X17444682Y-12156960D02*
X17463730Y-12166484D01*
X17463730Y-12166484D02*
X17501825Y-12166484D01*
X17501825Y-12166484D02*
X17520873Y-12156960D01*
X17520873Y-12156960D02*
X17530396Y-12137912D01*
X17530396Y-12137912D02*
X17530396Y-12128388D01*
X17530396Y-12128388D02*
X17520873Y-12109341D01*
X17520873Y-12109341D02*
X17501825Y-12099817D01*
X17501825Y-12099817D02*
X17473253Y-12099817D01*
X17473253Y-12099817D02*
X17454206Y-12090293D01*
X17454206Y-12090293D02*
X17444682Y-12071246D01*
X17444682Y-12071246D02*
X17444682Y-12061722D01*
X17444682Y-12061722D02*
X17454206Y-12042674D01*
X17454206Y-12042674D02*
X17473253Y-12033150D01*
X17473253Y-12033150D02*
X17501825Y-12033150D01*
X17501825Y-12033150D02*
X17520873Y-12042674D01*
X17597063Y-12242674D02*
X17606587Y-12233150D01*
X17606587Y-12233150D02*
X17625634Y-12204579D01*
X17625634Y-12204579D02*
X17635158Y-12185531D01*
X17635158Y-12185531D02*
X17644682Y-12156960D01*
X17644682Y-12156960D02*
X17654206Y-12109341D01*
X17654206Y-12109341D02*
X17654206Y-12071246D01*
X17654206Y-12071246D02*
X17644682Y-12023627D01*
X17644682Y-12023627D02*
X17635158Y-11995055D01*
X17635158Y-11995055D02*
X17625634Y-11976008D01*
X17625634Y-11976008D02*
X17606587Y-11947436D01*
X17606587Y-11947436D02*
X17597063Y-11937912D01*
X17958968Y-12242674D02*
X17949444Y-12233150D01*
X17949444Y-12233150D02*
X17930396Y-12204579D01*
X17930396Y-12204579D02*
X17920873Y-12185531D01*
X17920873Y-12185531D02*
X17911349Y-12156960D01*
X17911349Y-12156960D02*
X17901825Y-12109341D01*
X17901825Y-12109341D02*
X17901825Y-12071246D01*
X17901825Y-12071246D02*
X17911349Y-12023627D01*
X17911349Y-12023627D02*
X17920873Y-11995055D01*
X17920873Y-11995055D02*
X17930396Y-11976008D01*
X17930396Y-11976008D02*
X17949444Y-11947436D01*
X17949444Y-11947436D02*
X17958968Y-11937912D01*
X18035158Y-12033150D02*
X18035158Y-12166484D01*
X18035158Y-12052198D02*
X18044682Y-12042674D01*
X18044682Y-12042674D02*
X18063730Y-12033150D01*
X18063730Y-12033150D02*
X18092301Y-12033150D01*
X18092301Y-12033150D02*
X18111349Y-12042674D01*
X18111349Y-12042674D02*
X18120873Y-12061722D01*
X18120873Y-12061722D02*
X18120873Y-12166484D01*
X18244682Y-12166484D02*
X18225634Y-12156960D01*
X18225634Y-12156960D02*
X18216111Y-12147436D01*
X18216111Y-12147436D02*
X18206587Y-12128388D01*
X18206587Y-12128388D02*
X18206587Y-12071246D01*
X18206587Y-12071246D02*
X18216111Y-12052198D01*
X18216111Y-12052198D02*
X18225634Y-12042674D01*
X18225634Y-12042674D02*
X18244682Y-12033150D01*
X18244682Y-12033150D02*
X18273254Y-12033150D01*
X18273254Y-12033150D02*
X18292301Y-12042674D01*
X18292301Y-12042674D02*
X18301825Y-12052198D01*
X18301825Y-12052198D02*
X18311349Y-12071246D01*
X18311349Y-12071246D02*
X18311349Y-12128388D01*
X18311349Y-12128388D02*
X18301825Y-12147436D01*
X18301825Y-12147436D02*
X18292301Y-12156960D01*
X18292301Y-12156960D02*
X18273254Y-12166484D01*
X18273254Y-12166484D02*
X18244682Y-12166484D01*
X18368492Y-12033150D02*
X18444682Y-12033150D01*
X18397063Y-11966484D02*
X18397063Y-12137912D01*
X18397063Y-12137912D02*
X18406587Y-12156960D01*
X18406587Y-12156960D02*
X18425634Y-12166484D01*
X18425634Y-12166484D02*
X18444682Y-12166484D01*
X18663730Y-12033150D02*
X18663730Y-12233150D01*
X18663730Y-12042674D02*
X18682777Y-12033150D01*
X18682777Y-12033150D02*
X18720873Y-12033150D01*
X18720873Y-12033150D02*
X18739920Y-12042674D01*
X18739920Y-12042674D02*
X18749444Y-12052198D01*
X18749444Y-12052198D02*
X18758968Y-12071246D01*
X18758968Y-12071246D02*
X18758968Y-12128388D01*
X18758968Y-12128388D02*
X18749444Y-12147436D01*
X18749444Y-12147436D02*
X18739920Y-12156960D01*
X18739920Y-12156960D02*
X18720873Y-12166484D01*
X18720873Y-12166484D02*
X18682777Y-12166484D01*
X18682777Y-12166484D02*
X18663730Y-12156960D01*
X18873254Y-12166484D02*
X18854206Y-12156960D01*
X18854206Y-12156960D02*
X18844682Y-12137912D01*
X18844682Y-12137912D02*
X18844682Y-11966484D01*
X19035158Y-12166484D02*
X19035158Y-12061722D01*
X19035158Y-12061722D02*
X19025635Y-12042674D01*
X19025635Y-12042674D02*
X19006587Y-12033150D01*
X19006587Y-12033150D02*
X18968492Y-12033150D01*
X18968492Y-12033150D02*
X18949444Y-12042674D01*
X19035158Y-12156960D02*
X19016111Y-12166484D01*
X19016111Y-12166484D02*
X18968492Y-12166484D01*
X18968492Y-12166484D02*
X18949444Y-12156960D01*
X18949444Y-12156960D02*
X18939920Y-12137912D01*
X18939920Y-12137912D02*
X18939920Y-12118865D01*
X18939920Y-12118865D02*
X18949444Y-12099817D01*
X18949444Y-12099817D02*
X18968492Y-12090293D01*
X18968492Y-12090293D02*
X19016111Y-12090293D01*
X19016111Y-12090293D02*
X19035158Y-12080769D01*
X19101825Y-12033150D02*
X19178015Y-12033150D01*
X19130396Y-11966484D02*
X19130396Y-12137912D01*
X19130396Y-12137912D02*
X19139920Y-12156960D01*
X19139920Y-12156960D02*
X19158968Y-12166484D01*
X19158968Y-12166484D02*
X19178015Y-12166484D01*
X19320873Y-12156960D02*
X19301825Y-12166484D01*
X19301825Y-12166484D02*
X19263730Y-12166484D01*
X19263730Y-12166484D02*
X19244682Y-12156960D01*
X19244682Y-12156960D02*
X19235158Y-12137912D01*
X19235158Y-12137912D02*
X19235158Y-12061722D01*
X19235158Y-12061722D02*
X19244682Y-12042674D01*
X19244682Y-12042674D02*
X19263730Y-12033150D01*
X19263730Y-12033150D02*
X19301825Y-12033150D01*
X19301825Y-12033150D02*
X19320873Y-12042674D01*
X19320873Y-12042674D02*
X19330396Y-12061722D01*
X19330396Y-12061722D02*
X19330396Y-12080769D01*
X19330396Y-12080769D02*
X19235158Y-12099817D01*
X19501825Y-12166484D02*
X19501825Y-11966484D01*
X19501825Y-12156960D02*
X19482777Y-12166484D01*
X19482777Y-12166484D02*
X19444682Y-12166484D01*
X19444682Y-12166484D02*
X19425635Y-12156960D01*
X19425635Y-12156960D02*
X19416111Y-12147436D01*
X19416111Y-12147436D02*
X19406587Y-12128388D01*
X19406587Y-12128388D02*
X19406587Y-12071246D01*
X19406587Y-12071246D02*
X19416111Y-12052198D01*
X19416111Y-12052198D02*
X19425635Y-12042674D01*
X19425635Y-12042674D02*
X19444682Y-12033150D01*
X19444682Y-12033150D02*
X19482777Y-12033150D01*
X19482777Y-12033150D02*
X19501825Y-12042674D01*
X19578016Y-12242674D02*
X19587539Y-12233150D01*
X19587539Y-12233150D02*
X19606587Y-12204579D01*
X19606587Y-12204579D02*
X19616111Y-12185531D01*
X19616111Y-12185531D02*
X19625635Y-12156960D01*
X19625635Y-12156960D02*
X19635158Y-12109341D01*
X19635158Y-12109341D02*
X19635158Y-12071246D01*
X19635158Y-12071246D02*
X19625635Y-12023627D01*
X19625635Y-12023627D02*
X19616111Y-11995055D01*
X19616111Y-11995055D02*
X19606587Y-11976008D01*
X19606587Y-11976008D02*
X19587539Y-11947436D01*
X19587539Y-11947436D02*
X19578016Y-11937912D01*
M02*
