%TF.GenerationSoftware,KiCad,Pcbnew,7.0.9*%
%TF.CreationDate,2023-12-25T10:03:32-05:00*%
%TF.ProjectId,pcb_ac_interface,7063625f-6163-45f6-996e-746572666163,rev?*%
%TF.SameCoordinates,Original*%
%TF.FileFunction,Legend,Top*%
%TF.FilePolarity,Positive*%
%FSLAX46Y46*%
G04 Gerber Fmt 4.6, Leading zero omitted, Abs format (unit mm)*
G04 Created by KiCad (PCBNEW 7.0.9) date 2023-12-25 10:03:32*
%MOMM*%
%LPD*%
G01*
G04 APERTURE LIST*
%ADD10C,0.127000*%
%ADD11C,0.200000*%
%ADD12C,0.120000*%
G04 APERTURE END LIST*
D10*
X135563428Y-110613056D02*
X135805333Y-111629056D01*
X135805333Y-111629056D02*
X135998857Y-110903342D01*
X135998857Y-110903342D02*
X136192381Y-111629056D01*
X136192381Y-111629056D02*
X136434286Y-110613056D01*
X137256762Y-111629056D02*
X137256762Y-111096866D01*
X137256762Y-111096866D02*
X137208381Y-111000104D01*
X137208381Y-111000104D02*
X137111619Y-110951723D01*
X137111619Y-110951723D02*
X136918095Y-110951723D01*
X136918095Y-110951723D02*
X136821333Y-111000104D01*
X137256762Y-111580676D02*
X137160000Y-111629056D01*
X137160000Y-111629056D02*
X136918095Y-111629056D01*
X136918095Y-111629056D02*
X136821333Y-111580676D01*
X136821333Y-111580676D02*
X136772952Y-111483914D01*
X136772952Y-111483914D02*
X136772952Y-111387152D01*
X136772952Y-111387152D02*
X136821333Y-111290390D01*
X136821333Y-111290390D02*
X136918095Y-111242009D01*
X136918095Y-111242009D02*
X137160000Y-111242009D01*
X137160000Y-111242009D02*
X137256762Y-111193628D01*
X137643809Y-110951723D02*
X137885714Y-111629056D01*
X138127619Y-110951723D02*
X137885714Y-111629056D01*
X137885714Y-111629056D02*
X137788952Y-111870961D01*
X137788952Y-111870961D02*
X137740571Y-111919342D01*
X137740571Y-111919342D02*
X137643809Y-111967723D01*
X138417904Y-110613056D02*
X138659809Y-111629056D01*
X138659809Y-111629056D02*
X138853333Y-110903342D01*
X138853333Y-110903342D02*
X139046857Y-111629056D01*
X139046857Y-111629056D02*
X139288762Y-110613056D01*
X140111238Y-111629056D02*
X140111238Y-111096866D01*
X140111238Y-111096866D02*
X140062857Y-111000104D01*
X140062857Y-111000104D02*
X139966095Y-110951723D01*
X139966095Y-110951723D02*
X139772571Y-110951723D01*
X139772571Y-110951723D02*
X139675809Y-111000104D01*
X140111238Y-111580676D02*
X140014476Y-111629056D01*
X140014476Y-111629056D02*
X139772571Y-111629056D01*
X139772571Y-111629056D02*
X139675809Y-111580676D01*
X139675809Y-111580676D02*
X139627428Y-111483914D01*
X139627428Y-111483914D02*
X139627428Y-111387152D01*
X139627428Y-111387152D02*
X139675809Y-111290390D01*
X139675809Y-111290390D02*
X139772571Y-111242009D01*
X139772571Y-111242009D02*
X140014476Y-111242009D01*
X140014476Y-111242009D02*
X140111238Y-111193628D01*
X140498285Y-110951723D02*
X140740190Y-111629056D01*
X140982095Y-110951723D02*
X140740190Y-111629056D01*
X140740190Y-111629056D02*
X140643428Y-111870961D01*
X140643428Y-111870961D02*
X140595047Y-111919342D01*
X140595047Y-111919342D02*
X140498285Y-111967723D01*
X141272380Y-110613056D02*
X141514285Y-111629056D01*
X141514285Y-111629056D02*
X141707809Y-110903342D01*
X141707809Y-110903342D02*
X141901333Y-111629056D01*
X141901333Y-111629056D02*
X142143238Y-110613056D01*
X142965714Y-111629056D02*
X142965714Y-111096866D01*
X142965714Y-111096866D02*
X142917333Y-111000104D01*
X142917333Y-111000104D02*
X142820571Y-110951723D01*
X142820571Y-110951723D02*
X142627047Y-110951723D01*
X142627047Y-110951723D02*
X142530285Y-111000104D01*
X142965714Y-111580676D02*
X142868952Y-111629056D01*
X142868952Y-111629056D02*
X142627047Y-111629056D01*
X142627047Y-111629056D02*
X142530285Y-111580676D01*
X142530285Y-111580676D02*
X142481904Y-111483914D01*
X142481904Y-111483914D02*
X142481904Y-111387152D01*
X142481904Y-111387152D02*
X142530285Y-111290390D01*
X142530285Y-111290390D02*
X142627047Y-111242009D01*
X142627047Y-111242009D02*
X142868952Y-111242009D01*
X142868952Y-111242009D02*
X142965714Y-111193628D01*
X143352761Y-110951723D02*
X143594666Y-111629056D01*
X143836571Y-110951723D02*
X143594666Y-111629056D01*
X143594666Y-111629056D02*
X143497904Y-111870961D01*
X143497904Y-111870961D02*
X143449523Y-111919342D01*
X143449523Y-111919342D02*
X143352761Y-111967723D01*
D11*
G36*
X131381119Y-71882762D02*
G01*
X131896652Y-73206025D01*
X131896652Y-73363849D01*
X131868363Y-73392511D01*
X131730267Y-73392511D01*
X131703839Y-73365710D01*
X131575793Y-73044107D01*
X131539687Y-73026240D01*
X130967203Y-73026240D01*
X130931097Y-73044107D01*
X130803052Y-73365710D01*
X130776624Y-73392511D01*
X130638528Y-73392511D01*
X130610238Y-73363849D01*
X130610238Y-73206025D01*
X130769785Y-72796205D01*
X131020804Y-72796205D01*
X131033460Y-72808860D01*
X131473431Y-72808860D01*
X131486086Y-72796205D01*
X131256051Y-72213298D01*
X131250840Y-72213298D01*
X131020804Y-72796205D01*
X130769785Y-72796205D01*
X131125399Y-71882762D01*
X131152200Y-71855961D01*
X131354691Y-71855961D01*
X131381119Y-71882762D01*
G37*
G36*
X132941863Y-72042819D02*
G01*
X132172099Y-73354544D01*
X132145671Y-73380600D01*
X132029164Y-73380600D01*
X132000875Y-73351938D01*
X132000875Y-73193742D01*
X132771011Y-71882017D01*
X132797067Y-71855961D01*
X132913574Y-71855961D01*
X132941863Y-71884623D01*
X132941863Y-72042819D01*
G37*
G36*
X133739915Y-73404422D02*
G01*
X133719187Y-73404209D01*
X133698737Y-73403571D01*
X133678565Y-73402508D01*
X133658671Y-73401020D01*
X133639056Y-73399106D01*
X133619720Y-73396767D01*
X133600662Y-73394002D01*
X133581882Y-73390812D01*
X133563381Y-73387197D01*
X133545158Y-73383157D01*
X133527214Y-73378691D01*
X133509548Y-73373801D01*
X133492161Y-73368484D01*
X133475052Y-73362743D01*
X133458221Y-73356576D01*
X133441669Y-73349984D01*
X133425396Y-73342966D01*
X133409401Y-73335524D01*
X133393684Y-73327656D01*
X133378245Y-73319362D01*
X133363086Y-73310644D01*
X133348204Y-73301500D01*
X133333601Y-73291931D01*
X133319277Y-73281936D01*
X133305231Y-73271517D01*
X133291463Y-73260671D01*
X133277974Y-73249401D01*
X133264763Y-73237705D01*
X133251831Y-73225584D01*
X133239177Y-73213038D01*
X133226801Y-73200067D01*
X133214704Y-73186670D01*
X133202956Y-73172930D01*
X133191581Y-73158932D01*
X133180579Y-73144673D01*
X133169950Y-73130155D01*
X133159694Y-73115378D01*
X133149811Y-73100341D01*
X133140300Y-73085044D01*
X133131163Y-73069488D01*
X133122399Y-73053673D01*
X133114007Y-73037598D01*
X133105989Y-73021263D01*
X133098343Y-73004669D01*
X133091071Y-72987815D01*
X133084171Y-72970702D01*
X133077644Y-72953329D01*
X133071490Y-72935696D01*
X133065710Y-72917804D01*
X133060302Y-72899653D01*
X133055267Y-72881242D01*
X133050605Y-72862571D01*
X133046316Y-72843641D01*
X133042400Y-72824452D01*
X133038857Y-72805002D01*
X133035687Y-72785294D01*
X133032890Y-72765325D01*
X133030466Y-72745098D01*
X133028414Y-72724610D01*
X133026736Y-72703863D01*
X133025431Y-72682857D01*
X133024498Y-72661591D01*
X133023939Y-72640065D01*
X133023752Y-72618280D01*
X133023939Y-72596495D01*
X133024498Y-72574970D01*
X133025431Y-72553704D01*
X133026736Y-72532698D01*
X133028414Y-72511951D01*
X133030466Y-72491463D01*
X133032890Y-72471236D01*
X133035687Y-72451267D01*
X133038857Y-72431559D01*
X133042400Y-72412109D01*
X133046316Y-72392920D01*
X133050605Y-72373990D01*
X133055267Y-72355319D01*
X133060302Y-72336908D01*
X133065710Y-72318757D01*
X133071490Y-72300865D01*
X133077644Y-72283232D01*
X133084171Y-72265859D01*
X133091071Y-72248746D01*
X133098343Y-72231892D01*
X133105989Y-72215298D01*
X133114007Y-72198963D01*
X133122399Y-72182888D01*
X133131163Y-72167073D01*
X133140300Y-72151517D01*
X133149811Y-72136220D01*
X133159694Y-72121183D01*
X133169950Y-72106406D01*
X133180579Y-72091888D01*
X133191581Y-72077629D01*
X133202956Y-72063630D01*
X133214704Y-72049891D01*
X133226801Y-72036494D01*
X133239177Y-72023523D01*
X133251831Y-72010976D01*
X133264763Y-71998856D01*
X133277974Y-71987160D01*
X133291463Y-71975889D01*
X133305231Y-71965044D01*
X133319277Y-71954625D01*
X133333601Y-71944630D01*
X133348204Y-71935061D01*
X133363086Y-71925917D01*
X133378245Y-71917198D01*
X133393684Y-71908905D01*
X133409401Y-71901037D01*
X133425396Y-71893594D01*
X133441669Y-71886577D01*
X133458221Y-71879985D01*
X133475052Y-71873818D01*
X133492161Y-71868077D01*
X133509548Y-71862760D01*
X133527214Y-71857869D01*
X133545158Y-71853404D01*
X133563381Y-71849363D01*
X133581882Y-71845748D01*
X133600662Y-71842559D01*
X133619720Y-71839794D01*
X133639056Y-71837455D01*
X133658671Y-71835541D01*
X133678565Y-71834053D01*
X133698737Y-71832990D01*
X133719187Y-71832352D01*
X133739915Y-71832139D01*
X133755554Y-71832265D01*
X133771015Y-71832642D01*
X133786300Y-71833271D01*
X133801408Y-71834151D01*
X133816340Y-71835283D01*
X133845673Y-71838302D01*
X133874300Y-71842326D01*
X133902220Y-71847357D01*
X133929433Y-71853394D01*
X133955939Y-71860438D01*
X133981739Y-71868487D01*
X134006832Y-71877543D01*
X134031219Y-71887604D01*
X134054899Y-71898672D01*
X134077872Y-71910746D01*
X134100139Y-71923827D01*
X134121699Y-71937913D01*
X134142553Y-71953006D01*
X134152714Y-71960929D01*
X134172372Y-71977345D01*
X134191054Y-71994395D01*
X134208758Y-72012078D01*
X134225484Y-72030396D01*
X134241234Y-72049347D01*
X134256007Y-72068933D01*
X134269803Y-72089152D01*
X134282621Y-72110006D01*
X134294463Y-72131493D01*
X134305327Y-72153614D01*
X134315214Y-72176370D01*
X134324124Y-72199759D01*
X134332057Y-72223782D01*
X134339013Y-72248439D01*
X134344992Y-72273730D01*
X134349994Y-72299655D01*
X134320588Y-72329061D01*
X134140431Y-72329061D01*
X134113630Y-72301888D01*
X134109113Y-72287470D01*
X134104121Y-72273436D01*
X134095745Y-72253105D01*
X134086302Y-72233637D01*
X134075793Y-72215033D01*
X134064217Y-72197293D01*
X134051575Y-72180416D01*
X134037866Y-72164403D01*
X134023091Y-72149254D01*
X134007249Y-72134968D01*
X133990341Y-72121546D01*
X133984468Y-72117264D01*
X133966253Y-72105157D01*
X133947064Y-72094241D01*
X133926899Y-72084516D01*
X133912914Y-72078694D01*
X133898497Y-72073402D01*
X133883645Y-72068638D01*
X133868361Y-72064404D01*
X133852643Y-72060700D01*
X133836492Y-72057524D01*
X133819907Y-72054878D01*
X133802890Y-72052761D01*
X133785439Y-72051173D01*
X133767554Y-72050114D01*
X133749237Y-72049585D01*
X133739915Y-72049519D01*
X133711661Y-72050121D01*
X133684221Y-72051927D01*
X133657595Y-72054937D01*
X133631784Y-72059150D01*
X133606786Y-72064568D01*
X133582603Y-72071190D01*
X133559235Y-72079015D01*
X133536680Y-72088044D01*
X133514940Y-72098278D01*
X133494014Y-72109715D01*
X133473902Y-72122356D01*
X133454604Y-72136201D01*
X133436121Y-72151250D01*
X133418452Y-72167503D01*
X133401597Y-72184960D01*
X133385556Y-72203621D01*
X133370456Y-72223299D01*
X133356331Y-72243809D01*
X133343179Y-72265151D01*
X133331002Y-72287325D01*
X133319799Y-72310330D01*
X133309570Y-72334167D01*
X133300315Y-72358836D01*
X133292034Y-72384336D01*
X133284728Y-72410668D01*
X133278396Y-72437832D01*
X133273038Y-72465828D01*
X133268654Y-72494655D01*
X133265244Y-72524314D01*
X133263905Y-72539455D01*
X133262809Y-72554804D01*
X133261956Y-72570361D01*
X133261348Y-72586127D01*
X133260982Y-72602100D01*
X133260860Y-72618280D01*
X133260982Y-72634439D01*
X133261348Y-72650391D01*
X133261956Y-72666136D01*
X133262809Y-72681675D01*
X133263905Y-72697008D01*
X133265244Y-72712134D01*
X133266827Y-72727053D01*
X133270724Y-72756273D01*
X133275595Y-72784667D01*
X133281440Y-72812235D01*
X133288259Y-72838977D01*
X133296053Y-72864893D01*
X133304821Y-72889984D01*
X133314562Y-72914248D01*
X133325279Y-72937687D01*
X133336969Y-72960300D01*
X133349633Y-72982086D01*
X133363272Y-73003047D01*
X133377885Y-73023182D01*
X133385556Y-73032940D01*
X133401597Y-73051601D01*
X133418452Y-73069058D01*
X133436121Y-73085311D01*
X133454604Y-73100360D01*
X133473902Y-73114205D01*
X133494014Y-73126846D01*
X133514940Y-73138283D01*
X133536680Y-73148517D01*
X133559235Y-73157546D01*
X133582603Y-73165371D01*
X133606786Y-73171993D01*
X133631784Y-73177411D01*
X133657595Y-73181624D01*
X133684221Y-73184634D01*
X133711661Y-73186440D01*
X133739915Y-73187042D01*
X133758220Y-73186774D01*
X133776096Y-73185972D01*
X133793543Y-73184634D01*
X133810563Y-73182761D01*
X133827154Y-73180353D01*
X133843317Y-73177411D01*
X133859052Y-73173933D01*
X133874359Y-73169920D01*
X133889237Y-73165371D01*
X133903688Y-73160288D01*
X133917710Y-73154670D01*
X133931304Y-73148517D01*
X133957207Y-73134605D01*
X133981397Y-73118552D01*
X134003875Y-73100360D01*
X134024639Y-73080027D01*
X134043691Y-73057554D01*
X134052575Y-73045515D01*
X134061030Y-73032940D01*
X134069058Y-73019831D01*
X134076657Y-73006187D01*
X134083827Y-72992007D01*
X134090570Y-72977293D01*
X134096884Y-72962043D01*
X134102770Y-72946258D01*
X134108228Y-72929938D01*
X134113258Y-72913084D01*
X134140431Y-72885911D01*
X134320588Y-72885911D01*
X134349994Y-72915317D01*
X134345058Y-72942082D01*
X134339182Y-72968220D01*
X134332367Y-72993729D01*
X134324613Y-73018610D01*
X134315919Y-73042862D01*
X134306287Y-73066487D01*
X134295714Y-73089484D01*
X134284203Y-73111852D01*
X134271752Y-73133593D01*
X134258362Y-73154705D01*
X134244033Y-73175189D01*
X134228765Y-73195045D01*
X134212557Y-73214273D01*
X134195410Y-73232872D01*
X134177323Y-73250844D01*
X134158298Y-73268187D01*
X134138386Y-73284684D01*
X134117644Y-73300117D01*
X134096069Y-73314486D01*
X134073663Y-73327790D01*
X134050425Y-73340030D01*
X134026355Y-73351205D01*
X134001454Y-73361316D01*
X133975721Y-73370363D01*
X133949156Y-73378346D01*
X133921760Y-73385264D01*
X133893531Y-73391118D01*
X133864472Y-73395907D01*
X133849630Y-73397903D01*
X133834580Y-73399632D01*
X133819323Y-73401096D01*
X133803857Y-73402293D01*
X133788183Y-73403225D01*
X133772302Y-73403890D01*
X133756213Y-73404289D01*
X133739915Y-73404422D01*
G37*
G36*
X135723136Y-73404422D02*
G01*
X135702407Y-73404209D01*
X135681957Y-73403571D01*
X135661785Y-73402508D01*
X135641892Y-73401020D01*
X135622277Y-73399106D01*
X135602941Y-73396767D01*
X135583883Y-73394002D01*
X135565103Y-73390812D01*
X135546602Y-73387197D01*
X135528379Y-73383157D01*
X135510435Y-73378691D01*
X135492769Y-73373801D01*
X135475382Y-73368484D01*
X135458273Y-73362743D01*
X135441442Y-73356576D01*
X135424890Y-73349984D01*
X135408616Y-73342966D01*
X135392621Y-73335524D01*
X135376904Y-73327656D01*
X135361466Y-73319362D01*
X135346306Y-73310644D01*
X135331425Y-73301500D01*
X135316822Y-73291931D01*
X135302497Y-73281936D01*
X135288451Y-73271517D01*
X135274684Y-73260671D01*
X135261194Y-73249401D01*
X135247984Y-73237705D01*
X135235051Y-73225584D01*
X135222398Y-73213038D01*
X135210022Y-73200067D01*
X135197925Y-73186670D01*
X135186177Y-73172930D01*
X135174802Y-73158932D01*
X135163800Y-73144673D01*
X135153171Y-73130155D01*
X135142915Y-73115378D01*
X135133031Y-73100341D01*
X135123521Y-73085044D01*
X135114384Y-73069488D01*
X135105619Y-73053673D01*
X135097228Y-73037598D01*
X135089209Y-73021263D01*
X135081564Y-73004669D01*
X135074291Y-72987815D01*
X135067392Y-72970702D01*
X135060865Y-72953329D01*
X135054711Y-72935696D01*
X135048930Y-72917804D01*
X135043523Y-72899653D01*
X135038488Y-72881242D01*
X135033826Y-72862571D01*
X135029537Y-72843641D01*
X135025621Y-72824452D01*
X135022078Y-72805002D01*
X135018908Y-72785294D01*
X135016110Y-72765325D01*
X135013686Y-72745098D01*
X135011635Y-72724610D01*
X135009957Y-72703863D01*
X135008651Y-72682857D01*
X135007719Y-72661591D01*
X135007160Y-72640065D01*
X135006973Y-72618280D01*
X135007160Y-72596495D01*
X135007719Y-72574970D01*
X135008651Y-72553704D01*
X135009957Y-72532698D01*
X135011635Y-72511951D01*
X135013686Y-72491463D01*
X135016110Y-72471236D01*
X135018908Y-72451267D01*
X135022078Y-72431559D01*
X135025621Y-72412109D01*
X135029537Y-72392920D01*
X135033826Y-72373990D01*
X135038488Y-72355319D01*
X135043523Y-72336908D01*
X135048930Y-72318757D01*
X135054711Y-72300865D01*
X135060865Y-72283232D01*
X135067392Y-72265859D01*
X135074291Y-72248746D01*
X135081564Y-72231892D01*
X135089209Y-72215298D01*
X135097228Y-72198963D01*
X135105619Y-72182888D01*
X135114384Y-72167073D01*
X135123521Y-72151517D01*
X135133031Y-72136220D01*
X135142915Y-72121183D01*
X135153171Y-72106406D01*
X135163800Y-72091888D01*
X135174802Y-72077629D01*
X135186177Y-72063630D01*
X135197925Y-72049891D01*
X135210022Y-72036494D01*
X135222398Y-72023523D01*
X135235051Y-72010976D01*
X135247984Y-71998856D01*
X135261194Y-71987160D01*
X135274684Y-71975889D01*
X135288451Y-71965044D01*
X135302497Y-71954625D01*
X135316822Y-71944630D01*
X135331425Y-71935061D01*
X135346306Y-71925917D01*
X135361466Y-71917198D01*
X135376904Y-71908905D01*
X135392621Y-71901037D01*
X135408616Y-71893594D01*
X135424890Y-71886577D01*
X135441442Y-71879985D01*
X135458273Y-71873818D01*
X135475382Y-71868077D01*
X135492769Y-71862760D01*
X135510435Y-71857869D01*
X135528379Y-71853404D01*
X135546602Y-71849363D01*
X135565103Y-71845748D01*
X135583883Y-71842559D01*
X135602941Y-71839794D01*
X135622277Y-71837455D01*
X135641892Y-71835541D01*
X135661785Y-71834053D01*
X135681957Y-71832990D01*
X135702407Y-71832352D01*
X135723136Y-71832139D01*
X135738774Y-71832265D01*
X135754236Y-71832642D01*
X135769521Y-71833271D01*
X135784629Y-71834151D01*
X135799561Y-71835283D01*
X135828894Y-71838302D01*
X135857520Y-71842326D01*
X135885440Y-71847357D01*
X135912653Y-71853394D01*
X135939160Y-71860438D01*
X135964960Y-71868487D01*
X135990053Y-71877543D01*
X136014440Y-71887604D01*
X136038120Y-71898672D01*
X136061093Y-71910746D01*
X136083360Y-71923827D01*
X136104920Y-71937913D01*
X136125773Y-71953006D01*
X136135935Y-71960929D01*
X136155593Y-71977345D01*
X136174274Y-71994395D01*
X136191978Y-72012078D01*
X136208705Y-72030396D01*
X136224455Y-72049347D01*
X136239228Y-72068933D01*
X136253023Y-72089152D01*
X136265842Y-72110006D01*
X136277683Y-72131493D01*
X136288548Y-72153614D01*
X136298435Y-72176370D01*
X136307345Y-72199759D01*
X136315278Y-72223782D01*
X136322234Y-72248439D01*
X136328213Y-72273730D01*
X136333215Y-72299655D01*
X136303809Y-72329061D01*
X136123651Y-72329061D01*
X136096851Y-72301888D01*
X136092334Y-72287470D01*
X136087342Y-72273436D01*
X136078966Y-72253105D01*
X136069523Y-72233637D01*
X136059014Y-72215033D01*
X136047438Y-72197293D01*
X136034796Y-72180416D01*
X136021087Y-72164403D01*
X136006312Y-72149254D01*
X135990470Y-72134968D01*
X135973562Y-72121546D01*
X135967689Y-72117264D01*
X135949474Y-72105157D01*
X135930284Y-72094241D01*
X135910120Y-72084516D01*
X135896135Y-72078694D01*
X135881717Y-72073402D01*
X135866866Y-72068638D01*
X135851581Y-72064404D01*
X135835864Y-72060700D01*
X135819712Y-72057524D01*
X135803128Y-72054878D01*
X135786110Y-72052761D01*
X135768659Y-72051173D01*
X135750775Y-72050114D01*
X135732457Y-72049585D01*
X135723136Y-72049519D01*
X135694882Y-72050121D01*
X135667442Y-72051927D01*
X135640816Y-72054937D01*
X135615004Y-72059150D01*
X135590007Y-72064568D01*
X135565824Y-72071190D01*
X135542455Y-72079015D01*
X135519901Y-72088044D01*
X135498160Y-72098278D01*
X135477234Y-72109715D01*
X135457122Y-72122356D01*
X135437825Y-72136201D01*
X135419341Y-72151250D01*
X135401672Y-72167503D01*
X135384818Y-72184960D01*
X135368777Y-72203621D01*
X135353677Y-72223299D01*
X135339551Y-72243809D01*
X135326400Y-72265151D01*
X135314223Y-72287325D01*
X135303019Y-72310330D01*
X135292790Y-72334167D01*
X135283536Y-72358836D01*
X135275255Y-72384336D01*
X135267949Y-72410668D01*
X135261616Y-72437832D01*
X135256258Y-72465828D01*
X135251875Y-72494655D01*
X135248465Y-72524314D01*
X135247125Y-72539455D01*
X135246030Y-72554804D01*
X135245177Y-72570361D01*
X135244568Y-72586127D01*
X135244203Y-72602100D01*
X135244081Y-72618280D01*
X135244203Y-72634439D01*
X135244568Y-72650391D01*
X135245177Y-72666136D01*
X135246030Y-72681675D01*
X135247125Y-72697008D01*
X135248465Y-72712134D01*
X135250048Y-72727053D01*
X135253945Y-72756273D01*
X135258816Y-72784667D01*
X135264661Y-72812235D01*
X135271480Y-72838977D01*
X135279274Y-72864893D01*
X135288041Y-72889984D01*
X135297783Y-72914248D01*
X135308499Y-72937687D01*
X135320189Y-72960300D01*
X135332854Y-72982086D01*
X135346492Y-73003047D01*
X135361105Y-73023182D01*
X135368777Y-73032940D01*
X135384818Y-73051601D01*
X135401672Y-73069058D01*
X135419341Y-73085311D01*
X135437825Y-73100360D01*
X135457122Y-73114205D01*
X135477234Y-73126846D01*
X135498160Y-73138283D01*
X135519901Y-73148517D01*
X135542455Y-73157546D01*
X135565824Y-73165371D01*
X135590007Y-73171993D01*
X135615004Y-73177411D01*
X135640816Y-73181624D01*
X135667442Y-73184634D01*
X135694882Y-73186440D01*
X135723136Y-73187042D01*
X135741440Y-73186774D01*
X135759316Y-73185972D01*
X135776764Y-73184634D01*
X135793783Y-73182761D01*
X135810375Y-73180353D01*
X135826538Y-73177411D01*
X135842273Y-73173933D01*
X135857580Y-73169920D01*
X135872458Y-73165371D01*
X135886908Y-73160288D01*
X135900930Y-73154670D01*
X135914524Y-73148517D01*
X135940427Y-73134605D01*
X135964618Y-73118552D01*
X135987095Y-73100360D01*
X136007860Y-73080027D01*
X136026912Y-73057554D01*
X136035796Y-73045515D01*
X136044251Y-73032940D01*
X136052278Y-73019831D01*
X136059877Y-73006187D01*
X136067048Y-72992007D01*
X136073791Y-72977293D01*
X136080105Y-72962043D01*
X136085991Y-72946258D01*
X136091449Y-72929938D01*
X136096479Y-72913084D01*
X136123651Y-72885911D01*
X136303809Y-72885911D01*
X136333215Y-72915317D01*
X136328278Y-72942082D01*
X136322403Y-72968220D01*
X136315588Y-72993729D01*
X136307834Y-73018610D01*
X136299140Y-73042862D01*
X136289507Y-73066487D01*
X136278935Y-73089484D01*
X136267424Y-73111852D01*
X136254973Y-73133593D01*
X136241583Y-73154705D01*
X136227254Y-73175189D01*
X136211985Y-73195045D01*
X136195777Y-73214273D01*
X136178630Y-73232872D01*
X136160544Y-73250844D01*
X136141518Y-73268187D01*
X136121607Y-73284684D01*
X136100864Y-73300117D01*
X136079290Y-73314486D01*
X136056883Y-73327790D01*
X136033645Y-73340030D01*
X136009576Y-73351205D01*
X135984674Y-73361316D01*
X135958941Y-73370363D01*
X135932377Y-73378346D01*
X135904980Y-73385264D01*
X135876752Y-73391118D01*
X135847692Y-73395907D01*
X135832851Y-73397903D01*
X135817801Y-73399632D01*
X135802543Y-73401096D01*
X135787078Y-73402293D01*
X135771404Y-73403225D01*
X135755523Y-73403890D01*
X135739433Y-73404289D01*
X135723136Y-73404422D01*
G37*
G36*
X137213412Y-71832352D02*
G01*
X137233859Y-71832990D01*
X137254026Y-71834053D01*
X137273911Y-71835541D01*
X137293517Y-71837455D01*
X137312841Y-71839794D01*
X137331885Y-71842559D01*
X137350648Y-71845748D01*
X137369131Y-71849363D01*
X137387333Y-71853404D01*
X137405254Y-71857869D01*
X137422895Y-71862760D01*
X137440255Y-71868077D01*
X137457335Y-71873818D01*
X137474134Y-71879985D01*
X137490652Y-71886577D01*
X137506889Y-71893594D01*
X137522846Y-71901037D01*
X137538523Y-71908905D01*
X137553919Y-71917198D01*
X137569034Y-71925917D01*
X137583868Y-71935061D01*
X137598422Y-71944630D01*
X137612695Y-71954625D01*
X137626688Y-71965044D01*
X137640400Y-71975889D01*
X137653831Y-71987160D01*
X137666982Y-71998856D01*
X137679852Y-72010976D01*
X137692442Y-72023523D01*
X137704751Y-72036494D01*
X137716779Y-72049891D01*
X137728504Y-72063630D01*
X137739857Y-72077629D01*
X137750838Y-72091888D01*
X137761446Y-72106406D01*
X137771682Y-72121183D01*
X137781546Y-72136220D01*
X137791038Y-72151517D01*
X137800158Y-72167073D01*
X137808905Y-72182888D01*
X137817280Y-72198963D01*
X137825283Y-72215298D01*
X137832914Y-72231892D01*
X137840172Y-72248746D01*
X137847058Y-72265859D01*
X137853572Y-72283232D01*
X137859714Y-72300865D01*
X137865483Y-72318757D01*
X137870881Y-72336908D01*
X137875906Y-72355319D01*
X137880559Y-72373990D01*
X137884839Y-72392920D01*
X137888748Y-72412109D01*
X137892284Y-72431559D01*
X137895448Y-72451267D01*
X137898239Y-72471236D01*
X137900659Y-72491463D01*
X137902706Y-72511951D01*
X137904381Y-72532698D01*
X137905684Y-72553704D01*
X137906614Y-72574970D01*
X137907173Y-72596495D01*
X137907359Y-72618280D01*
X137907173Y-72640065D01*
X137906614Y-72661591D01*
X137905684Y-72682857D01*
X137904381Y-72703863D01*
X137902706Y-72724610D01*
X137900659Y-72745098D01*
X137898239Y-72765325D01*
X137895448Y-72785294D01*
X137892284Y-72805002D01*
X137888748Y-72824452D01*
X137884839Y-72843641D01*
X137880559Y-72862571D01*
X137875906Y-72881242D01*
X137870881Y-72899653D01*
X137865483Y-72917804D01*
X137859714Y-72935696D01*
X137853572Y-72953329D01*
X137847058Y-72970702D01*
X137840172Y-72987815D01*
X137832914Y-73004669D01*
X137825283Y-73021263D01*
X137817280Y-73037598D01*
X137808905Y-73053673D01*
X137800158Y-73069488D01*
X137791038Y-73085044D01*
X137781546Y-73100341D01*
X137771682Y-73115378D01*
X137761446Y-73130155D01*
X137750838Y-73144673D01*
X137739857Y-73158932D01*
X137728504Y-73172930D01*
X137716779Y-73186670D01*
X137704751Y-73200067D01*
X137692442Y-73213038D01*
X137679852Y-73225584D01*
X137666982Y-73237705D01*
X137653831Y-73249401D01*
X137640400Y-73260671D01*
X137626688Y-73271517D01*
X137612695Y-73281936D01*
X137598422Y-73291931D01*
X137583868Y-73301500D01*
X137569034Y-73310644D01*
X137553919Y-73319362D01*
X137538523Y-73327656D01*
X137522846Y-73335524D01*
X137506889Y-73342966D01*
X137490652Y-73349984D01*
X137474134Y-73356576D01*
X137457335Y-73362743D01*
X137440255Y-73368484D01*
X137422895Y-73373801D01*
X137405254Y-73378691D01*
X137387333Y-73383157D01*
X137369131Y-73387197D01*
X137350648Y-73390812D01*
X137331885Y-73394002D01*
X137312841Y-73396767D01*
X137293517Y-73399106D01*
X137273911Y-73401020D01*
X137254026Y-73402508D01*
X137233859Y-73403571D01*
X137213412Y-73404209D01*
X137192685Y-73404422D01*
X137171980Y-73404209D01*
X137151554Y-73403571D01*
X137131407Y-73402508D01*
X137111539Y-73401020D01*
X137091951Y-73399106D01*
X137072642Y-73396767D01*
X137053612Y-73394002D01*
X137034861Y-73390812D01*
X137016389Y-73387197D01*
X136998197Y-73383157D01*
X136980283Y-73378691D01*
X136962649Y-73373801D01*
X136945294Y-73368484D01*
X136928218Y-73362743D01*
X136911421Y-73356576D01*
X136894904Y-73349984D01*
X136878666Y-73342966D01*
X136862706Y-73335524D01*
X136847026Y-73327656D01*
X136831625Y-73319362D01*
X136816504Y-73310644D01*
X136801661Y-73301500D01*
X136787098Y-73291931D01*
X136772814Y-73281936D01*
X136758809Y-73271517D01*
X136745083Y-73260671D01*
X136731636Y-73249401D01*
X136718469Y-73237705D01*
X136705580Y-73225584D01*
X136692971Y-73213038D01*
X136680641Y-73200067D01*
X136668590Y-73186670D01*
X136656865Y-73172930D01*
X136645512Y-73158932D01*
X136634532Y-73144673D01*
X136623923Y-73130155D01*
X136613687Y-73115378D01*
X136603823Y-73100341D01*
X136594331Y-73085044D01*
X136585212Y-73069488D01*
X136576464Y-73053673D01*
X136568089Y-73037598D01*
X136560087Y-73021263D01*
X136552456Y-73004669D01*
X136545197Y-72987815D01*
X136538311Y-72970702D01*
X136531797Y-72953329D01*
X136525656Y-72935696D01*
X136519886Y-72917804D01*
X136514489Y-72899653D01*
X136509464Y-72881242D01*
X136504811Y-72862571D01*
X136500530Y-72843641D01*
X136496622Y-72824452D01*
X136493086Y-72805002D01*
X136489922Y-72785294D01*
X136487130Y-72765325D01*
X136484711Y-72745098D01*
X136482663Y-72724610D01*
X136480988Y-72703863D01*
X136479686Y-72682857D01*
X136478755Y-72661591D01*
X136478197Y-72640065D01*
X136478011Y-72618280D01*
X136715119Y-72618280D01*
X136715240Y-72634439D01*
X136715604Y-72650391D01*
X136716211Y-72666136D01*
X136717061Y-72681675D01*
X136718154Y-72697008D01*
X136719489Y-72712134D01*
X136721068Y-72727053D01*
X136724953Y-72756273D01*
X136729809Y-72784667D01*
X136735637Y-72812235D01*
X136742436Y-72838977D01*
X136750206Y-72864893D01*
X136758948Y-72889984D01*
X136768660Y-72914248D01*
X136779344Y-72937687D01*
X136791000Y-72960300D01*
X136803626Y-72982086D01*
X136817224Y-73003047D01*
X136831793Y-73023182D01*
X136839442Y-73032940D01*
X136855435Y-73051601D01*
X136872239Y-73069058D01*
X136889854Y-73085311D01*
X136908281Y-73100360D01*
X136927519Y-73114205D01*
X136947568Y-73126846D01*
X136968429Y-73138283D01*
X136990101Y-73148517D01*
X137012584Y-73157546D01*
X137035879Y-73165371D01*
X137059985Y-73171993D01*
X137084902Y-73177411D01*
X137110631Y-73181624D01*
X137137171Y-73184634D01*
X137164522Y-73186440D01*
X137192685Y-73187042D01*
X137220846Y-73186440D01*
X137248193Y-73184634D01*
X137274726Y-73181624D01*
X137300444Y-73177411D01*
X137325348Y-73171993D01*
X137349438Y-73165371D01*
X137372714Y-73157546D01*
X137395176Y-73148517D01*
X137416823Y-73138283D01*
X137437656Y-73126846D01*
X137457675Y-73114205D01*
X137476879Y-73100360D01*
X137495270Y-73085311D01*
X137512846Y-73069058D01*
X137529608Y-73051601D01*
X137545555Y-73032940D01*
X137560655Y-73013218D01*
X137574781Y-72992670D01*
X137587932Y-72971296D01*
X137600110Y-72949096D01*
X137611313Y-72926071D01*
X137621542Y-72902219D01*
X137630796Y-72877542D01*
X137639077Y-72852038D01*
X137646383Y-72825709D01*
X137652716Y-72798554D01*
X137658074Y-72770573D01*
X137662457Y-72741766D01*
X137665867Y-72712134D01*
X137667207Y-72697008D01*
X137668302Y-72681675D01*
X137669155Y-72666136D01*
X137669764Y-72650391D01*
X137670129Y-72634439D01*
X137670251Y-72618280D01*
X137670129Y-72602100D01*
X137669764Y-72586127D01*
X137669155Y-72570361D01*
X137668302Y-72554804D01*
X137667207Y-72539455D01*
X137665867Y-72524314D01*
X137664284Y-72509380D01*
X137660387Y-72480137D01*
X137655516Y-72451726D01*
X137649671Y-72424146D01*
X137642852Y-72397398D01*
X137635058Y-72371482D01*
X137626291Y-72346398D01*
X137616549Y-72322145D01*
X137605833Y-72298724D01*
X137594143Y-72276134D01*
X137581478Y-72254376D01*
X137567840Y-72233450D01*
X137553227Y-72213356D01*
X137545555Y-72203621D01*
X137529608Y-72184960D01*
X137512846Y-72167503D01*
X137495270Y-72151250D01*
X137476879Y-72136201D01*
X137457675Y-72122356D01*
X137437656Y-72109715D01*
X137416823Y-72098278D01*
X137395176Y-72088044D01*
X137372714Y-72079015D01*
X137349438Y-72071190D01*
X137325348Y-72064568D01*
X137300444Y-72059150D01*
X137274726Y-72054937D01*
X137248193Y-72051927D01*
X137220846Y-72050121D01*
X137192685Y-72049519D01*
X137164522Y-72050121D01*
X137137171Y-72051927D01*
X137110631Y-72054937D01*
X137084902Y-72059150D01*
X137059985Y-72064568D01*
X137035879Y-72071190D01*
X137012584Y-72079015D01*
X136990101Y-72088044D01*
X136968429Y-72098278D01*
X136947568Y-72109715D01*
X136927519Y-72122356D01*
X136908281Y-72136201D01*
X136889854Y-72151250D01*
X136872239Y-72167503D01*
X136855435Y-72184960D01*
X136839442Y-72203621D01*
X136824387Y-72223299D01*
X136810304Y-72243809D01*
X136797192Y-72265151D01*
X136785051Y-72287325D01*
X136773881Y-72310330D01*
X136763683Y-72334167D01*
X136754455Y-72358836D01*
X136746200Y-72384336D01*
X136738915Y-72410668D01*
X136732602Y-72437832D01*
X136727260Y-72465828D01*
X136722889Y-72494655D01*
X136719489Y-72524314D01*
X136718154Y-72539455D01*
X136717061Y-72554804D01*
X136716211Y-72570361D01*
X136715604Y-72586127D01*
X136715240Y-72602100D01*
X136715119Y-72618280D01*
X136478011Y-72618280D01*
X136478197Y-72596495D01*
X136478755Y-72574970D01*
X136479686Y-72553704D01*
X136480988Y-72532698D01*
X136482663Y-72511951D01*
X136484711Y-72491463D01*
X136487130Y-72471236D01*
X136489922Y-72451267D01*
X136493086Y-72431559D01*
X136496622Y-72412109D01*
X136500530Y-72392920D01*
X136504811Y-72373990D01*
X136509464Y-72355319D01*
X136514489Y-72336908D01*
X136519886Y-72318757D01*
X136525656Y-72300865D01*
X136531797Y-72283232D01*
X136538311Y-72265859D01*
X136545197Y-72248746D01*
X136552456Y-72231892D01*
X136560087Y-72215298D01*
X136568089Y-72198963D01*
X136576464Y-72182888D01*
X136585212Y-72167073D01*
X136594331Y-72151517D01*
X136603823Y-72136220D01*
X136613687Y-72121183D01*
X136623923Y-72106406D01*
X136634532Y-72091888D01*
X136645512Y-72077629D01*
X136656865Y-72063630D01*
X136668590Y-72049891D01*
X136680641Y-72036494D01*
X136692971Y-72023523D01*
X136705580Y-72010976D01*
X136718469Y-71998856D01*
X136731636Y-71987160D01*
X136745083Y-71975889D01*
X136758809Y-71965044D01*
X136772814Y-71954625D01*
X136787098Y-71944630D01*
X136801661Y-71935061D01*
X136816504Y-71925917D01*
X136831625Y-71917198D01*
X136847026Y-71908905D01*
X136862706Y-71901037D01*
X136878666Y-71893594D01*
X136894904Y-71886577D01*
X136911421Y-71879985D01*
X136928218Y-71873818D01*
X136945294Y-71868077D01*
X136962649Y-71862760D01*
X136980283Y-71857869D01*
X136998197Y-71853404D01*
X137016389Y-71849363D01*
X137034861Y-71845748D01*
X137053612Y-71842559D01*
X137072642Y-71839794D01*
X137091951Y-71837455D01*
X137111539Y-71835541D01*
X137131407Y-71834053D01*
X137151554Y-71832990D01*
X137171980Y-71832352D01*
X137192685Y-71832139D01*
X137213412Y-71832352D01*
G37*
G36*
X139366485Y-73351938D02*
G01*
X139338196Y-73380600D01*
X139138311Y-73380600D01*
X139090293Y-73356405D01*
X138367803Y-72244193D01*
X138364825Y-72244193D01*
X138364825Y-73351938D01*
X138336536Y-73380600D01*
X138156006Y-73380600D01*
X138127717Y-73351938D01*
X138127717Y-71884623D01*
X138156006Y-71855961D01*
X138355891Y-71855961D01*
X138403536Y-71880156D01*
X139126399Y-72992368D01*
X139129377Y-72992368D01*
X139129377Y-71884623D01*
X139157666Y-71855961D01*
X139338196Y-71855961D01*
X139366485Y-71884623D01*
X139366485Y-73351938D01*
G37*
G36*
X140780944Y-72044680D02*
G01*
X140753400Y-72073341D01*
X140317523Y-72073341D01*
X140303378Y-72087858D01*
X140303378Y-73354916D01*
X140275089Y-73383577D01*
X140094559Y-73383577D01*
X140066270Y-73354916D01*
X140066270Y-72087858D01*
X140051753Y-72073341D01*
X139594660Y-72073341D01*
X139565998Y-72044680D01*
X139565998Y-71884623D01*
X139594660Y-71855961D01*
X140753400Y-71855961D01*
X140780944Y-71884623D01*
X140780944Y-72044680D01*
G37*
G36*
X141684352Y-71856386D02*
G01*
X141712591Y-71857660D01*
X141740023Y-71859783D01*
X141766646Y-71862755D01*
X141792460Y-71866576D01*
X141817466Y-71871246D01*
X141841664Y-71876765D01*
X141865053Y-71883134D01*
X141887634Y-71890352D01*
X141909406Y-71898418D01*
X141930370Y-71907334D01*
X141950525Y-71917100D01*
X141969872Y-71927714D01*
X141988411Y-71939177D01*
X142006141Y-71951490D01*
X142023063Y-71964651D01*
X142039064Y-71978691D01*
X142054033Y-71993639D01*
X142067970Y-72009493D01*
X142080874Y-72026255D01*
X142092746Y-72043924D01*
X142103586Y-72062500D01*
X142113393Y-72081984D01*
X142122168Y-72102375D01*
X142129911Y-72123673D01*
X142136621Y-72145879D01*
X142142299Y-72168992D01*
X142146944Y-72193012D01*
X142150558Y-72217940D01*
X142153138Y-72243774D01*
X142154687Y-72270517D01*
X142155203Y-72298166D01*
X142154860Y-72319940D01*
X142153831Y-72341152D01*
X142152115Y-72361804D01*
X142149713Y-72381894D01*
X142146624Y-72401422D01*
X142142850Y-72420390D01*
X142138389Y-72438796D01*
X142133242Y-72456641D01*
X142127408Y-72473925D01*
X142120889Y-72490648D01*
X142113682Y-72506809D01*
X142105790Y-72522409D01*
X142097211Y-72537448D01*
X142087947Y-72551925D01*
X142077995Y-72565842D01*
X142067358Y-72579197D01*
X142056203Y-72591945D01*
X142044605Y-72604136D01*
X142032566Y-72615768D01*
X142020085Y-72626842D01*
X142007162Y-72637357D01*
X141993797Y-72647314D01*
X141979989Y-72656713D01*
X141965740Y-72665553D01*
X141951049Y-72673835D01*
X141935915Y-72681559D01*
X141920340Y-72688724D01*
X141904323Y-72695331D01*
X141887863Y-72701380D01*
X141870962Y-72706870D01*
X141853619Y-72711802D01*
X141835833Y-72716176D01*
X141835833Y-72725109D01*
X142133986Y-73196720D01*
X142133986Y-73354916D01*
X142105697Y-73383577D01*
X142012268Y-73383577D01*
X141964996Y-73359383D01*
X141583092Y-72759354D01*
X141545869Y-72740371D01*
X141215332Y-72740371D01*
X141201188Y-72754887D01*
X141201188Y-73354916D01*
X141172898Y-73383577D01*
X140992369Y-73383577D01*
X140964080Y-73354916D01*
X140964080Y-72508474D01*
X141201188Y-72508474D01*
X141215332Y-72522991D01*
X141654931Y-72522991D01*
X141672075Y-72522790D01*
X141688612Y-72522188D01*
X141704541Y-72521185D01*
X141719861Y-72519780D01*
X141741703Y-72516921D01*
X141762177Y-72513159D01*
X141781284Y-72508493D01*
X141799023Y-72502925D01*
X141815395Y-72496454D01*
X141830400Y-72489080D01*
X141844036Y-72480803D01*
X141856306Y-72471623D01*
X141867348Y-72461310D01*
X141877304Y-72449774D01*
X141886175Y-72437014D01*
X141893959Y-72423030D01*
X141900656Y-72407823D01*
X141906268Y-72391393D01*
X141910794Y-72373738D01*
X141914233Y-72354861D01*
X141916587Y-72334759D01*
X141917854Y-72313435D01*
X141918095Y-72298538D01*
X141917854Y-72283597D01*
X141916587Y-72262210D01*
X141914233Y-72242053D01*
X141910794Y-72223126D01*
X141906268Y-72205429D01*
X141900656Y-72188963D01*
X141893959Y-72173726D01*
X141886175Y-72159720D01*
X141877304Y-72146943D01*
X141867348Y-72135397D01*
X141856306Y-72125081D01*
X141844036Y-72115834D01*
X141830400Y-72107498D01*
X141815395Y-72100070D01*
X141799023Y-72093552D01*
X141781284Y-72087944D01*
X141762177Y-72083245D01*
X141741703Y-72079455D01*
X141719861Y-72076575D01*
X141704541Y-72075160D01*
X141688612Y-72074150D01*
X141672075Y-72073544D01*
X141654931Y-72073341D01*
X141215332Y-72073341D01*
X141201188Y-72087858D01*
X141201188Y-72508474D01*
X140964080Y-72508474D01*
X140964080Y-71884623D01*
X140992369Y-71855961D01*
X141655303Y-71855961D01*
X141684352Y-71856386D01*
G37*
G36*
X143057362Y-71832352D02*
G01*
X143077809Y-71832990D01*
X143097976Y-71834053D01*
X143117861Y-71835541D01*
X143137466Y-71837455D01*
X143156791Y-71839794D01*
X143175835Y-71842559D01*
X143194598Y-71845748D01*
X143213081Y-71849363D01*
X143231283Y-71853404D01*
X143249204Y-71857869D01*
X143266845Y-71862760D01*
X143284205Y-71868077D01*
X143301284Y-71873818D01*
X143318083Y-71879985D01*
X143334602Y-71886577D01*
X143350839Y-71893594D01*
X143366796Y-71901037D01*
X143382473Y-71908905D01*
X143397868Y-71917198D01*
X143412983Y-71925917D01*
X143427818Y-71935061D01*
X143442372Y-71944630D01*
X143456645Y-71954625D01*
X143470638Y-71965044D01*
X143484350Y-71975889D01*
X143497781Y-71987160D01*
X143510932Y-71998856D01*
X143523802Y-72010976D01*
X143536392Y-72023523D01*
X143548701Y-72036494D01*
X143560729Y-72049891D01*
X143572454Y-72063630D01*
X143583807Y-72077629D01*
X143594788Y-72091888D01*
X143605396Y-72106406D01*
X143615632Y-72121183D01*
X143625496Y-72136220D01*
X143634988Y-72151517D01*
X143644108Y-72167073D01*
X143652855Y-72182888D01*
X143661230Y-72198963D01*
X143669233Y-72215298D01*
X143676863Y-72231892D01*
X143684122Y-72248746D01*
X143691008Y-72265859D01*
X143697522Y-72283232D01*
X143703664Y-72300865D01*
X143709433Y-72318757D01*
X143714830Y-72336908D01*
X143719856Y-72355319D01*
X143724508Y-72373990D01*
X143728789Y-72392920D01*
X143732697Y-72412109D01*
X143736233Y-72431559D01*
X143739397Y-72451267D01*
X143742189Y-72471236D01*
X143744609Y-72491463D01*
X143746656Y-72511951D01*
X143748331Y-72532698D01*
X143749634Y-72553704D01*
X143750564Y-72574970D01*
X143751123Y-72596495D01*
X143751309Y-72618280D01*
X143751123Y-72640065D01*
X143750564Y-72661591D01*
X143749634Y-72682857D01*
X143748331Y-72703863D01*
X143746656Y-72724610D01*
X143744609Y-72745098D01*
X143742189Y-72765325D01*
X143739397Y-72785294D01*
X143736233Y-72805002D01*
X143732697Y-72824452D01*
X143728789Y-72843641D01*
X143724508Y-72862571D01*
X143719856Y-72881242D01*
X143714830Y-72899653D01*
X143709433Y-72917804D01*
X143703664Y-72935696D01*
X143697522Y-72953329D01*
X143691008Y-72970702D01*
X143684122Y-72987815D01*
X143676863Y-73004669D01*
X143669233Y-73021263D01*
X143661230Y-73037598D01*
X143652855Y-73053673D01*
X143644108Y-73069488D01*
X143634988Y-73085044D01*
X143625496Y-73100341D01*
X143615632Y-73115378D01*
X143605396Y-73130155D01*
X143594788Y-73144673D01*
X143583807Y-73158932D01*
X143572454Y-73172930D01*
X143560729Y-73186670D01*
X143548701Y-73200067D01*
X143536392Y-73213038D01*
X143523802Y-73225584D01*
X143510932Y-73237705D01*
X143497781Y-73249401D01*
X143484350Y-73260671D01*
X143470638Y-73271517D01*
X143456645Y-73281936D01*
X143442372Y-73291931D01*
X143427818Y-73301500D01*
X143412983Y-73310644D01*
X143397868Y-73319362D01*
X143382473Y-73327656D01*
X143366796Y-73335524D01*
X143350839Y-73342966D01*
X143334602Y-73349984D01*
X143318083Y-73356576D01*
X143301284Y-73362743D01*
X143284205Y-73368484D01*
X143266845Y-73373801D01*
X143249204Y-73378691D01*
X143231283Y-73383157D01*
X143213081Y-73387197D01*
X143194598Y-73390812D01*
X143175835Y-73394002D01*
X143156791Y-73396767D01*
X143137466Y-73399106D01*
X143117861Y-73401020D01*
X143097976Y-73402508D01*
X143077809Y-73403571D01*
X143057362Y-73404209D01*
X143036635Y-73404422D01*
X143015929Y-73404209D01*
X142995504Y-73403571D01*
X142975357Y-73402508D01*
X142955489Y-73401020D01*
X142935901Y-73399106D01*
X142916592Y-73396767D01*
X142897562Y-73394002D01*
X142878811Y-73390812D01*
X142860339Y-73387197D01*
X142842146Y-73383157D01*
X142824233Y-73378691D01*
X142806599Y-73373801D01*
X142789244Y-73368484D01*
X142772168Y-73362743D01*
X142755371Y-73356576D01*
X142738854Y-73349984D01*
X142722615Y-73342966D01*
X142706656Y-73335524D01*
X142690976Y-73327656D01*
X142675575Y-73319362D01*
X142660454Y-73310644D01*
X142645611Y-73301500D01*
X142631048Y-73291931D01*
X142616763Y-73281936D01*
X142602758Y-73271517D01*
X142589033Y-73260671D01*
X142575586Y-73249401D01*
X142562418Y-73237705D01*
X142549530Y-73225584D01*
X142536921Y-73213038D01*
X142524591Y-73200067D01*
X142512540Y-73186670D01*
X142500815Y-73172930D01*
X142489462Y-73158932D01*
X142478481Y-73144673D01*
X142467873Y-73130155D01*
X142457637Y-73115378D01*
X142447773Y-73100341D01*
X142438281Y-73085044D01*
X142429162Y-73069488D01*
X142420414Y-73053673D01*
X142412039Y-73037598D01*
X142404036Y-73021263D01*
X142396406Y-73004669D01*
X142389147Y-72987815D01*
X142382261Y-72970702D01*
X142375747Y-72953329D01*
X142369605Y-72935696D01*
X142363836Y-72917804D01*
X142358439Y-72899653D01*
X142353414Y-72881242D01*
X142348761Y-72862571D01*
X142344480Y-72843641D01*
X142340572Y-72824452D01*
X142337036Y-72805002D01*
X142333872Y-72785294D01*
X142331080Y-72765325D01*
X142328660Y-72745098D01*
X142326613Y-72724610D01*
X142324938Y-72703863D01*
X142323635Y-72682857D01*
X142322705Y-72661591D01*
X142322147Y-72640065D01*
X142321960Y-72618280D01*
X142559068Y-72618280D01*
X142559190Y-72634439D01*
X142559554Y-72650391D01*
X142560161Y-72666136D01*
X142561011Y-72681675D01*
X142562104Y-72697008D01*
X142563439Y-72712134D01*
X142565018Y-72727053D01*
X142568903Y-72756273D01*
X142573759Y-72784667D01*
X142579587Y-72812235D01*
X142586386Y-72838977D01*
X142594156Y-72864893D01*
X142602897Y-72889984D01*
X142612610Y-72914248D01*
X142623294Y-72937687D01*
X142634950Y-72960300D01*
X142647576Y-72982086D01*
X142661174Y-73003047D01*
X142675743Y-73023182D01*
X142683392Y-73032940D01*
X142699385Y-73051601D01*
X142716189Y-73069058D01*
X142733804Y-73085311D01*
X142752231Y-73100360D01*
X142771469Y-73114205D01*
X142791518Y-73126846D01*
X142812378Y-73138283D01*
X142834050Y-73148517D01*
X142856534Y-73157546D01*
X142879828Y-73165371D01*
X142903934Y-73171993D01*
X142928852Y-73177411D01*
X142954580Y-73181624D01*
X142981120Y-73184634D01*
X143008472Y-73186440D01*
X143036635Y-73187042D01*
X143064796Y-73186440D01*
X143092143Y-73184634D01*
X143118675Y-73181624D01*
X143144394Y-73177411D01*
X143169298Y-73171993D01*
X143193388Y-73165371D01*
X143216664Y-73157546D01*
X143239126Y-73148517D01*
X143260773Y-73138283D01*
X143281606Y-73126846D01*
X143301625Y-73114205D01*
X143320829Y-73100360D01*
X143339219Y-73085311D01*
X143356796Y-73069058D01*
X143373557Y-73051601D01*
X143389505Y-73032940D01*
X143404605Y-73013218D01*
X143418730Y-72992670D01*
X143431882Y-72971296D01*
X143444059Y-72949096D01*
X143455262Y-72926071D01*
X143465491Y-72902219D01*
X143474746Y-72877542D01*
X143483027Y-72852038D01*
X143490333Y-72825709D01*
X143496665Y-72798554D01*
X143502023Y-72770573D01*
X143506407Y-72741766D01*
X143509817Y-72712134D01*
X143511156Y-72697008D01*
X143512252Y-72681675D01*
X143513105Y-72666136D01*
X143513714Y-72650391D01*
X143514079Y-72634439D01*
X143514201Y-72618280D01*
X143514079Y-72602100D01*
X143513714Y-72586127D01*
X143513105Y-72570361D01*
X143512252Y-72554804D01*
X143511156Y-72539455D01*
X143509817Y-72524314D01*
X143508234Y-72509380D01*
X143504337Y-72480137D01*
X143499466Y-72451726D01*
X143493621Y-72424146D01*
X143486802Y-72397398D01*
X143479008Y-72371482D01*
X143470240Y-72346398D01*
X143460499Y-72322145D01*
X143449783Y-72298724D01*
X143438092Y-72276134D01*
X143425428Y-72254376D01*
X143411789Y-72233450D01*
X143397177Y-72213356D01*
X143389505Y-72203621D01*
X143373557Y-72184960D01*
X143356796Y-72167503D01*
X143339219Y-72151250D01*
X143320829Y-72136201D01*
X143301625Y-72122356D01*
X143281606Y-72109715D01*
X143260773Y-72098278D01*
X143239126Y-72088044D01*
X143216664Y-72079015D01*
X143193388Y-72071190D01*
X143169298Y-72064568D01*
X143144394Y-72059150D01*
X143118675Y-72054937D01*
X143092143Y-72051927D01*
X143064796Y-72050121D01*
X143036635Y-72049519D01*
X143008472Y-72050121D01*
X142981120Y-72051927D01*
X142954580Y-72054937D01*
X142928852Y-72059150D01*
X142903934Y-72064568D01*
X142879828Y-72071190D01*
X142856534Y-72079015D01*
X142834050Y-72088044D01*
X142812378Y-72098278D01*
X142791518Y-72109715D01*
X142771469Y-72122356D01*
X142752231Y-72136201D01*
X142733804Y-72151250D01*
X142716189Y-72167503D01*
X142699385Y-72184960D01*
X142683392Y-72203621D01*
X142668337Y-72223299D01*
X142654254Y-72243809D01*
X142641141Y-72265151D01*
X142629000Y-72287325D01*
X142617831Y-72310330D01*
X142607632Y-72334167D01*
X142598405Y-72358836D01*
X142590149Y-72384336D01*
X142582865Y-72410668D01*
X142576551Y-72437832D01*
X142571209Y-72465828D01*
X142566839Y-72494655D01*
X142563439Y-72524314D01*
X142562104Y-72539455D01*
X142561011Y-72554804D01*
X142560161Y-72570361D01*
X142559554Y-72586127D01*
X142559190Y-72602100D01*
X142559068Y-72618280D01*
X142321960Y-72618280D01*
X142322147Y-72596495D01*
X142322705Y-72574970D01*
X142323635Y-72553704D01*
X142324938Y-72532698D01*
X142326613Y-72511951D01*
X142328660Y-72491463D01*
X142331080Y-72471236D01*
X142333872Y-72451267D01*
X142337036Y-72431559D01*
X142340572Y-72412109D01*
X142344480Y-72392920D01*
X142348761Y-72373990D01*
X142353414Y-72355319D01*
X142358439Y-72336908D01*
X142363836Y-72318757D01*
X142369605Y-72300865D01*
X142375747Y-72283232D01*
X142382261Y-72265859D01*
X142389147Y-72248746D01*
X142396406Y-72231892D01*
X142404036Y-72215298D01*
X142412039Y-72198963D01*
X142420414Y-72182888D01*
X142429162Y-72167073D01*
X142438281Y-72151517D01*
X142447773Y-72136220D01*
X142457637Y-72121183D01*
X142467873Y-72106406D01*
X142478481Y-72091888D01*
X142489462Y-72077629D01*
X142500815Y-72063630D01*
X142512540Y-72049891D01*
X142524591Y-72036494D01*
X142536921Y-72023523D01*
X142549530Y-72010976D01*
X142562418Y-71998856D01*
X142575586Y-71987160D01*
X142589033Y-71975889D01*
X142602758Y-71965044D01*
X142616763Y-71954625D01*
X142631048Y-71944630D01*
X142645611Y-71935061D01*
X142660454Y-71925917D01*
X142675575Y-71917198D01*
X142690976Y-71908905D01*
X142706656Y-71901037D01*
X142722615Y-71893594D01*
X142738854Y-71886577D01*
X142755371Y-71879985D01*
X142772168Y-71873818D01*
X142789244Y-71868077D01*
X142806599Y-71862760D01*
X142824233Y-71857869D01*
X142842146Y-71853404D01*
X142860339Y-71849363D01*
X142878811Y-71845748D01*
X142897562Y-71842559D01*
X142916592Y-71839794D01*
X142935901Y-71837455D01*
X142955489Y-71835541D01*
X142975357Y-71834053D01*
X142995504Y-71832990D01*
X143015929Y-71832352D01*
X143036635Y-71832139D01*
X143057362Y-71832352D01*
G37*
G36*
X144960299Y-73354916D02*
G01*
X144931638Y-73383577D01*
X143999956Y-73383577D01*
X143971666Y-73354916D01*
X143971666Y-71884623D01*
X143999956Y-71855961D01*
X144180485Y-71855961D01*
X144208775Y-71884623D01*
X144208775Y-73151680D01*
X144223291Y-73166197D01*
X144931638Y-73166197D01*
X144960299Y-73194859D01*
X144960299Y-73354916D01*
G37*
G36*
X146111222Y-73354916D02*
G01*
X146082561Y-73383577D01*
X145150879Y-73383577D01*
X145122590Y-73354916D01*
X145122590Y-71884623D01*
X145150879Y-71855961D01*
X145331408Y-71855961D01*
X145359698Y-71884623D01*
X145359698Y-73151680D01*
X145374214Y-73166197D01*
X146082561Y-73166197D01*
X146111222Y-73194859D01*
X146111222Y-73354916D01*
G37*
G36*
X147297879Y-73354544D02*
G01*
X147273684Y-73383577D01*
X146301802Y-73383577D01*
X146273513Y-73354916D01*
X146273513Y-71884623D01*
X146301802Y-71855961D01*
X147273684Y-71855961D01*
X147297879Y-71884995D01*
X147297879Y-72044308D01*
X147273684Y-72073341D01*
X146525138Y-72073341D01*
X146510621Y-72087858D01*
X146510621Y-72484651D01*
X146525138Y-72499168D01*
X147233484Y-72499168D01*
X147262145Y-72527830D01*
X147262145Y-72687887D01*
X147233484Y-72716548D01*
X146525138Y-72716548D01*
X146510621Y-72731065D01*
X146510621Y-73151680D01*
X146525138Y-73166197D01*
X147273684Y-73166197D01*
X147297879Y-73195231D01*
X147297879Y-73354544D01*
G37*
G36*
X148295087Y-71856386D02*
G01*
X148323327Y-71857660D01*
X148350758Y-71859783D01*
X148377381Y-71862755D01*
X148403196Y-71866576D01*
X148428202Y-71871246D01*
X148452399Y-71876765D01*
X148475788Y-71883134D01*
X148498369Y-71890352D01*
X148520141Y-71898418D01*
X148541105Y-71907334D01*
X148561261Y-71917100D01*
X148580608Y-71927714D01*
X148599146Y-71939177D01*
X148616877Y-71951490D01*
X148633798Y-71964651D01*
X148649800Y-71978691D01*
X148664769Y-71993639D01*
X148678705Y-72009493D01*
X148691610Y-72026255D01*
X148703482Y-72043924D01*
X148714321Y-72062500D01*
X148724129Y-72081984D01*
X148732904Y-72102375D01*
X148740646Y-72123673D01*
X148747356Y-72145879D01*
X148753034Y-72168992D01*
X148757680Y-72193012D01*
X148761293Y-72217940D01*
X148763874Y-72243774D01*
X148765422Y-72270517D01*
X148765939Y-72298166D01*
X148765596Y-72319940D01*
X148764566Y-72341152D01*
X148762850Y-72361804D01*
X148760448Y-72381894D01*
X148757360Y-72401422D01*
X148753585Y-72420390D01*
X148749124Y-72438796D01*
X148743977Y-72456641D01*
X148738144Y-72473925D01*
X148731624Y-72490648D01*
X148724418Y-72506809D01*
X148716526Y-72522409D01*
X148707947Y-72537448D01*
X148698682Y-72551925D01*
X148688731Y-72565842D01*
X148678093Y-72579197D01*
X148666938Y-72591945D01*
X148655341Y-72604136D01*
X148643302Y-72615768D01*
X148630821Y-72626842D01*
X148617897Y-72637357D01*
X148604532Y-72647314D01*
X148590725Y-72656713D01*
X148576476Y-72665553D01*
X148561784Y-72673835D01*
X148546651Y-72681559D01*
X148531076Y-72688724D01*
X148515058Y-72695331D01*
X148498599Y-72701380D01*
X148481697Y-72706870D01*
X148464354Y-72711802D01*
X148446569Y-72716176D01*
X148446569Y-72725109D01*
X148744722Y-73196720D01*
X148744722Y-73354916D01*
X148716433Y-73383577D01*
X148623004Y-73383577D01*
X148575731Y-73359383D01*
X148193827Y-72759354D01*
X148156605Y-72740371D01*
X147826068Y-72740371D01*
X147811923Y-72754887D01*
X147811923Y-73354916D01*
X147783634Y-73383577D01*
X147603104Y-73383577D01*
X147574815Y-73354916D01*
X147574815Y-72508474D01*
X147811923Y-72508474D01*
X147826068Y-72522991D01*
X148265667Y-72522991D01*
X148282811Y-72522790D01*
X148299347Y-72522188D01*
X148315276Y-72521185D01*
X148330597Y-72519780D01*
X148352439Y-72516921D01*
X148372913Y-72513159D01*
X148392020Y-72508493D01*
X148409759Y-72502925D01*
X148426131Y-72496454D01*
X148441135Y-72489080D01*
X148454772Y-72480803D01*
X148467041Y-72471623D01*
X148478084Y-72461310D01*
X148488040Y-72449774D01*
X148496910Y-72437014D01*
X148504694Y-72423030D01*
X148511392Y-72407823D01*
X148517004Y-72391393D01*
X148521529Y-72373738D01*
X148524969Y-72354861D01*
X148527322Y-72334759D01*
X148528589Y-72313435D01*
X148528831Y-72298538D01*
X148528589Y-72283597D01*
X148527322Y-72262210D01*
X148524969Y-72242053D01*
X148521529Y-72223126D01*
X148517004Y-72205429D01*
X148511392Y-72188963D01*
X148504694Y-72173726D01*
X148496910Y-72159720D01*
X148488040Y-72146943D01*
X148478084Y-72135397D01*
X148467041Y-72125081D01*
X148454772Y-72115834D01*
X148441135Y-72107498D01*
X148426131Y-72100070D01*
X148409759Y-72093552D01*
X148392020Y-72087944D01*
X148372913Y-72083245D01*
X148352439Y-72079455D01*
X148330597Y-72076575D01*
X148315276Y-72075160D01*
X148299347Y-72074150D01*
X148282811Y-72073544D01*
X148265667Y-72073341D01*
X147826068Y-72073341D01*
X147811923Y-72087858D01*
X147811923Y-72508474D01*
X147574815Y-72508474D01*
X147574815Y-71884623D01*
X147603104Y-71855961D01*
X148266039Y-71855961D01*
X148295087Y-71856386D01*
G37*
G36*
X134365628Y-74443082D02*
G01*
X134881161Y-75766345D01*
X134881161Y-75924169D01*
X134852872Y-75952831D01*
X134714776Y-75952831D01*
X134688348Y-75926030D01*
X134560302Y-75604427D01*
X134524196Y-75586560D01*
X133951712Y-75586560D01*
X133915606Y-75604427D01*
X133787561Y-75926030D01*
X133761133Y-75952831D01*
X133623037Y-75952831D01*
X133594747Y-75924169D01*
X133594747Y-75766345D01*
X133754294Y-75356525D01*
X134005313Y-75356525D01*
X134017969Y-75369180D01*
X134457940Y-75369180D01*
X134470595Y-75356525D01*
X134240560Y-74773618D01*
X134235349Y-74773618D01*
X134005313Y-75356525D01*
X133754294Y-75356525D01*
X134109908Y-74443082D01*
X134136709Y-74416281D01*
X134339200Y-74416281D01*
X134365628Y-74443082D01*
G37*
G36*
X136629135Y-75911886D02*
G01*
X136601218Y-75940920D01*
X136419944Y-75940920D01*
X136392027Y-75911886D01*
X136392027Y-74892731D01*
X136390538Y-74892731D01*
X135969550Y-75914119D01*
X135943122Y-75940920D01*
X135742864Y-75940920D01*
X135716064Y-75914119D01*
X135295448Y-74892731D01*
X135293960Y-74892731D01*
X135293960Y-75911886D01*
X135266043Y-75940920D01*
X135084769Y-75940920D01*
X135056852Y-75911886D01*
X135056852Y-74444943D01*
X135085141Y-74416281D01*
X135329321Y-74416281D01*
X135356121Y-74443082D01*
X135840760Y-75631227D01*
X135845226Y-75631227D01*
X136330237Y-74443082D01*
X136356665Y-74416281D01*
X136600845Y-74416281D01*
X136629135Y-74444943D01*
X136629135Y-75911886D01*
G37*
G36*
X137908103Y-75912630D02*
G01*
X137876836Y-75940920D01*
X136912026Y-75940920D01*
X136883737Y-75912258D01*
X136883737Y-75732845D01*
X136907187Y-75685200D01*
X137332270Y-75339774D01*
X137352528Y-75323171D01*
X137371987Y-75306861D01*
X137390647Y-75290846D01*
X137408506Y-75275123D01*
X137425566Y-75259695D01*
X137441826Y-75244560D01*
X137457287Y-75229719D01*
X137471948Y-75215172D01*
X137485809Y-75200918D01*
X137498870Y-75186958D01*
X137511132Y-75173292D01*
X137522594Y-75159919D01*
X137533256Y-75146841D01*
X137543118Y-75134055D01*
X137552181Y-75121564D01*
X137560444Y-75109366D01*
X137571686Y-75090877D01*
X137581823Y-75071700D01*
X137590853Y-75051837D01*
X137598778Y-75031286D01*
X137605597Y-75010049D01*
X137609528Y-74995508D01*
X137612969Y-74980663D01*
X137615917Y-74965512D01*
X137618375Y-74950056D01*
X137620340Y-74934295D01*
X137621815Y-74918228D01*
X137622798Y-74901856D01*
X137623289Y-74885178D01*
X137623351Y-74876725D01*
X137622850Y-74854594D01*
X137621348Y-74833288D01*
X137618846Y-74812806D01*
X137615342Y-74793149D01*
X137610837Y-74774316D01*
X137605331Y-74756307D01*
X137598824Y-74739123D01*
X137591316Y-74722763D01*
X137582807Y-74707228D01*
X137573296Y-74692517D01*
X137566400Y-74683168D01*
X137555110Y-74670063D01*
X137542596Y-74658247D01*
X137528859Y-74647721D01*
X137513899Y-74638483D01*
X137497714Y-74630534D01*
X137480307Y-74623875D01*
X137461675Y-74618504D01*
X137441820Y-74614422D01*
X137420742Y-74611629D01*
X137398440Y-74610125D01*
X137382892Y-74609839D01*
X137366770Y-74610104D01*
X137351160Y-74610900D01*
X137336062Y-74612227D01*
X137307400Y-74616473D01*
X137280786Y-74622841D01*
X137256219Y-74631333D01*
X137233700Y-74641947D01*
X137213227Y-74654684D01*
X137194802Y-74669544D01*
X137178424Y-74686527D01*
X137164093Y-74705633D01*
X137151810Y-74726861D01*
X137141574Y-74750213D01*
X137133385Y-74775687D01*
X137127243Y-74803284D01*
X137123148Y-74833004D01*
X137121869Y-74848660D01*
X137121101Y-74864847D01*
X137120845Y-74881564D01*
X137092556Y-74910225D01*
X136912026Y-74910225D01*
X136883737Y-74881564D01*
X136884248Y-74853868D01*
X136885779Y-74826893D01*
X136888330Y-74800640D01*
X136891903Y-74775107D01*
X136896496Y-74750296D01*
X136902110Y-74726206D01*
X136908745Y-74702837D01*
X136916400Y-74680190D01*
X136925076Y-74658263D01*
X136934773Y-74637058D01*
X136945490Y-74616574D01*
X136957229Y-74596811D01*
X136969988Y-74577769D01*
X136983767Y-74559449D01*
X136998568Y-74541850D01*
X137014389Y-74524971D01*
X137031139Y-74508925D01*
X137048726Y-74493914D01*
X137067152Y-74479938D01*
X137086414Y-74466997D01*
X137106515Y-74455092D01*
X137127452Y-74444222D01*
X137149228Y-74434387D01*
X137171840Y-74425587D01*
X137195290Y-74417823D01*
X137219578Y-74411093D01*
X137244704Y-74405400D01*
X137270666Y-74400741D01*
X137297467Y-74397118D01*
X137325104Y-74394529D01*
X137353580Y-74392977D01*
X137382892Y-74392459D01*
X137397802Y-74392594D01*
X137426905Y-74393673D01*
X137455055Y-74395830D01*
X137482251Y-74399067D01*
X137508493Y-74403383D01*
X137533781Y-74408777D01*
X137558115Y-74415250D01*
X137581495Y-74422802D01*
X137603922Y-74431433D01*
X137625395Y-74441143D01*
X137645914Y-74451932D01*
X137665479Y-74463799D01*
X137684090Y-74476746D01*
X137701748Y-74490771D01*
X137718451Y-74505876D01*
X137734201Y-74522059D01*
X137741718Y-74530555D01*
X137756097Y-74547962D01*
X137769548Y-74565753D01*
X137782072Y-74583929D01*
X137793667Y-74602488D01*
X137804335Y-74621430D01*
X137814076Y-74640757D01*
X137822888Y-74660468D01*
X137830774Y-74680562D01*
X137837731Y-74701040D01*
X137843761Y-74721902D01*
X137848863Y-74743148D01*
X137853037Y-74764778D01*
X137856284Y-74786792D01*
X137858603Y-74809189D01*
X137859995Y-74831971D01*
X137860459Y-74855136D01*
X137860134Y-74879731D01*
X137859162Y-74903822D01*
X137857540Y-74927410D01*
X137855271Y-74950496D01*
X137852352Y-74973078D01*
X137848786Y-74995157D01*
X137844571Y-75016733D01*
X137839707Y-75037806D01*
X137834195Y-75058376D01*
X137828034Y-75078443D01*
X137821225Y-75098006D01*
X137813767Y-75117067D01*
X137805661Y-75135624D01*
X137796907Y-75153679D01*
X137787504Y-75171230D01*
X137777452Y-75188278D01*
X137766711Y-75205065D01*
X137755241Y-75221924D01*
X137743040Y-75238856D01*
X137730110Y-75255861D01*
X137716449Y-75272938D01*
X137702059Y-75290088D01*
X137686939Y-75307311D01*
X137671089Y-75324606D01*
X137654508Y-75341974D01*
X137637198Y-75359415D01*
X137619159Y-75376929D01*
X137600389Y-75394515D01*
X137580889Y-75412174D01*
X137560659Y-75429905D01*
X137539700Y-75447710D01*
X137518011Y-75465587D01*
X137205341Y-75719445D01*
X137205341Y-75723539D01*
X137876836Y-75723539D01*
X137908103Y-75751829D01*
X137908103Y-75912630D01*
G37*
G36*
X139060515Y-75446975D02*
G01*
X139060370Y-75461906D01*
X139059210Y-75491181D01*
X139056890Y-75519674D01*
X139053409Y-75547385D01*
X139048767Y-75574313D01*
X139042966Y-75600459D01*
X139036004Y-75625822D01*
X139027882Y-75650404D01*
X139018600Y-75674203D01*
X139008157Y-75697220D01*
X138996554Y-75719455D01*
X138983791Y-75740907D01*
X138969867Y-75761577D01*
X138954783Y-75781465D01*
X138938539Y-75800571D01*
X138921135Y-75818894D01*
X138911997Y-75827763D01*
X138893041Y-75844711D01*
X138873303Y-75860565D01*
X138852783Y-75875326D01*
X138831480Y-75888994D01*
X138809395Y-75901568D01*
X138786528Y-75913049D01*
X138762879Y-75923437D01*
X138738447Y-75932731D01*
X138713233Y-75940931D01*
X138687237Y-75948038D01*
X138660458Y-75954052D01*
X138632897Y-75958972D01*
X138604555Y-75962799D01*
X138575429Y-75965533D01*
X138545522Y-75967173D01*
X138530275Y-75967583D01*
X138514832Y-75967720D01*
X138487154Y-75967225D01*
X138460138Y-75965742D01*
X138433786Y-75963271D01*
X138408096Y-75959810D01*
X138383070Y-75955361D01*
X138358706Y-75949923D01*
X138335006Y-75943496D01*
X138311969Y-75936081D01*
X138289595Y-75927676D01*
X138267883Y-75918284D01*
X138246835Y-75907902D01*
X138226450Y-75896532D01*
X138206728Y-75884172D01*
X138187669Y-75870825D01*
X138169272Y-75856488D01*
X138151539Y-75841163D01*
X138134682Y-75825084D01*
X138118911Y-75808488D01*
X138104229Y-75791375D01*
X138090634Y-75773743D01*
X138078126Y-75755595D01*
X138066707Y-75736928D01*
X138056375Y-75717744D01*
X138047130Y-75698042D01*
X138038973Y-75677823D01*
X138031904Y-75657085D01*
X138025922Y-75635831D01*
X138021028Y-75614058D01*
X138017221Y-75591769D01*
X138014502Y-75568961D01*
X138012871Y-75545636D01*
X138012327Y-75521793D01*
X138043594Y-75493876D01*
X138222635Y-75493876D01*
X138249435Y-75522165D01*
X138250040Y-75538872D01*
X138251856Y-75555212D01*
X138254882Y-75571186D01*
X138259119Y-75586793D01*
X138264566Y-75602034D01*
X138271223Y-75616908D01*
X138279091Y-75631416D01*
X138288170Y-75645558D01*
X138298459Y-75659333D01*
X138309958Y-75672742D01*
X138318297Y-75681478D01*
X138331788Y-75693784D01*
X138346301Y-75704880D01*
X138361834Y-75714766D01*
X138378388Y-75723441D01*
X138395962Y-75730905D01*
X138414558Y-75737159D01*
X138434174Y-75742203D01*
X138454811Y-75746036D01*
X138476468Y-75748659D01*
X138491473Y-75749735D01*
X138506932Y-75750272D01*
X138514832Y-75750340D01*
X138533439Y-75750017D01*
X138551479Y-75749049D01*
X138568952Y-75747435D01*
X138585857Y-75745175D01*
X138602196Y-75742270D01*
X138617968Y-75738719D01*
X138633172Y-75734523D01*
X138647810Y-75729681D01*
X138661880Y-75724194D01*
X138681923Y-75714752D01*
X138700689Y-75703858D01*
X138718180Y-75691511D01*
X138734395Y-75677712D01*
X138744496Y-75667706D01*
X138758598Y-75651615D01*
X138771313Y-75634471D01*
X138782641Y-75616274D01*
X138792582Y-75597023D01*
X138801136Y-75576719D01*
X138806068Y-75562598D01*
X138810384Y-75548008D01*
X138814083Y-75532951D01*
X138817165Y-75517425D01*
X138819631Y-75501431D01*
X138821481Y-75484968D01*
X138822714Y-75468038D01*
X138823330Y-75450639D01*
X138823407Y-75441764D01*
X138823133Y-75424707D01*
X138822308Y-75408153D01*
X138820934Y-75392103D01*
X138819011Y-75376555D01*
X138816537Y-75361510D01*
X138811797Y-75339887D01*
X138805820Y-75319395D01*
X138798606Y-75300035D01*
X138790156Y-75281807D01*
X138780469Y-75264712D01*
X138769545Y-75248748D01*
X138757385Y-75233916D01*
X138753057Y-75229223D01*
X138739452Y-75215919D01*
X138724878Y-75203923D01*
X138709336Y-75193236D01*
X138692826Y-75183858D01*
X138675347Y-75175788D01*
X138656900Y-75169027D01*
X138637485Y-75163575D01*
X138617101Y-75159431D01*
X138595749Y-75156595D01*
X138573429Y-75155069D01*
X138558010Y-75154778D01*
X138541391Y-75155315D01*
X138525033Y-75156924D01*
X138508937Y-75159607D01*
X138493103Y-75163362D01*
X138477531Y-75168191D01*
X138472398Y-75170039D01*
X138457982Y-75175710D01*
X138443180Y-75182193D01*
X138428925Y-75189428D01*
X138416281Y-75197346D01*
X138413959Y-75199073D01*
X138391625Y-75218801D01*
X138317924Y-75218801D01*
X138289635Y-75190512D01*
X138289635Y-75036038D01*
X138695362Y-74639245D01*
X138695362Y-74633661D01*
X138110594Y-74633661D01*
X138083794Y-74605000D01*
X138083794Y-74444943D01*
X138110594Y-74416281D01*
X138958153Y-74416281D01*
X138989048Y-74444571D01*
X138989048Y-74624356D01*
X138964853Y-74673490D01*
X138633944Y-74982810D01*
X138633944Y-74988021D01*
X138648867Y-74988021D01*
X138664839Y-74988021D01*
X138683971Y-74988464D01*
X138702841Y-74989795D01*
X138721449Y-74992012D01*
X138739796Y-74995116D01*
X138757881Y-74999107D01*
X138775704Y-75003986D01*
X138793266Y-75009751D01*
X138810566Y-75016403D01*
X138827604Y-75023942D01*
X138844380Y-75032368D01*
X138860895Y-75041681D01*
X138877148Y-75051881D01*
X138893139Y-75062968D01*
X138908868Y-75074941D01*
X138924336Y-75087802D01*
X138939542Y-75101550D01*
X138954191Y-75116203D01*
X138967895Y-75131781D01*
X138980654Y-75148284D01*
X138992468Y-75165712D01*
X139003337Y-75184065D01*
X139013260Y-75203342D01*
X139022239Y-75223544D01*
X139030272Y-75244671D01*
X139037360Y-75266722D01*
X139043504Y-75289698D01*
X139048702Y-75313599D01*
X139052955Y-75338425D01*
X139056263Y-75364176D01*
X139058625Y-75390851D01*
X139060043Y-75418451D01*
X139060515Y-75446975D01*
G37*
G36*
X139772462Y-74392640D02*
G01*
X139787775Y-74393184D01*
X139802891Y-74394091D01*
X139817809Y-74395361D01*
X139847052Y-74398989D01*
X139875505Y-74404068D01*
X139903166Y-74410598D01*
X139930036Y-74418579D01*
X139956115Y-74428011D01*
X139981403Y-74438894D01*
X140005900Y-74451228D01*
X140029606Y-74465014D01*
X140052521Y-74480250D01*
X140074645Y-74496938D01*
X140095979Y-74515077D01*
X140116521Y-74534667D01*
X140136272Y-74555708D01*
X140155232Y-74578200D01*
X140164393Y-74590032D01*
X140173262Y-74602312D01*
X140181841Y-74615038D01*
X140190129Y-74628212D01*
X140198126Y-74641833D01*
X140205832Y-74655900D01*
X140213247Y-74670415D01*
X140220372Y-74685378D01*
X140227206Y-74700787D01*
X140233749Y-74716643D01*
X140240001Y-74732947D01*
X140245963Y-74749697D01*
X140251633Y-74766895D01*
X140257013Y-74784540D01*
X140262102Y-74802631D01*
X140266900Y-74821170D01*
X140271408Y-74840156D01*
X140275624Y-74859590D01*
X140279550Y-74879470D01*
X140283185Y-74899797D01*
X140286529Y-74920572D01*
X140289583Y-74941793D01*
X140292345Y-74963462D01*
X140294817Y-74985578D01*
X140296998Y-75008141D01*
X140298888Y-75031151D01*
X140300488Y-75054608D01*
X140301796Y-75078512D01*
X140302814Y-75102864D01*
X140303541Y-75127662D01*
X140303977Y-75152908D01*
X140304123Y-75178600D01*
X140303977Y-75204293D01*
X140303541Y-75229539D01*
X140302814Y-75254337D01*
X140301796Y-75278689D01*
X140300488Y-75302593D01*
X140298888Y-75326050D01*
X140296998Y-75349060D01*
X140294817Y-75371623D01*
X140292345Y-75393739D01*
X140289583Y-75415407D01*
X140286529Y-75436629D01*
X140283185Y-75457404D01*
X140279550Y-75477731D01*
X140275624Y-75497611D01*
X140271408Y-75517044D01*
X140266900Y-75536031D01*
X140262102Y-75554570D01*
X140257013Y-75572661D01*
X140251633Y-75590306D01*
X140245963Y-75607504D01*
X140240001Y-75624254D01*
X140233749Y-75640558D01*
X140227206Y-75656414D01*
X140220372Y-75671823D01*
X140213247Y-75686785D01*
X140205832Y-75701300D01*
X140198126Y-75715368D01*
X140190129Y-75728989D01*
X140181841Y-75742163D01*
X140173262Y-75754889D01*
X140164393Y-75767169D01*
X140155232Y-75779001D01*
X140136272Y-75801493D01*
X140116521Y-75822534D01*
X140095979Y-75842124D01*
X140074645Y-75860263D01*
X140052521Y-75876950D01*
X140029606Y-75892187D01*
X140005900Y-75905972D01*
X139981403Y-75918307D01*
X139956115Y-75929190D01*
X139930036Y-75938622D01*
X139903166Y-75946603D01*
X139875505Y-75953133D01*
X139847052Y-75958212D01*
X139817809Y-75961840D01*
X139802891Y-75963109D01*
X139787775Y-75964016D01*
X139772462Y-75964561D01*
X139756951Y-75964742D01*
X139741439Y-75964561D01*
X139726124Y-75964016D01*
X139711006Y-75963109D01*
X139696086Y-75961840D01*
X139666835Y-75958212D01*
X139638373Y-75953133D01*
X139610699Y-75946603D01*
X139583813Y-75938622D01*
X139557715Y-75929190D01*
X139532405Y-75918307D01*
X139507883Y-75905972D01*
X139484149Y-75892187D01*
X139461204Y-75876950D01*
X139439046Y-75860263D01*
X139417677Y-75842124D01*
X139397095Y-75822534D01*
X139377302Y-75801493D01*
X139358296Y-75779001D01*
X139349136Y-75767169D01*
X139340267Y-75754889D01*
X139331688Y-75742163D01*
X139323400Y-75728989D01*
X139315403Y-75715368D01*
X139307697Y-75701300D01*
X139300281Y-75686785D01*
X139293157Y-75671823D01*
X139286323Y-75656414D01*
X139279780Y-75640558D01*
X139273528Y-75624254D01*
X139267566Y-75607504D01*
X139261896Y-75590306D01*
X139256516Y-75572661D01*
X139251427Y-75554570D01*
X139246629Y-75536031D01*
X139242121Y-75517044D01*
X139237904Y-75497611D01*
X139233979Y-75477731D01*
X139230344Y-75457404D01*
X139226999Y-75436629D01*
X139223946Y-75415407D01*
X139221183Y-75393739D01*
X139218712Y-75371623D01*
X139216531Y-75349060D01*
X139214640Y-75326050D01*
X139213041Y-75302593D01*
X139211732Y-75278689D01*
X139210715Y-75254337D01*
X139209988Y-75229539D01*
X139209551Y-75204293D01*
X139209406Y-75178600D01*
X139446514Y-75178600D01*
X139446817Y-75213593D01*
X139447725Y-75247474D01*
X139449239Y-75280244D01*
X139451359Y-75311904D01*
X139454084Y-75342453D01*
X139457415Y-75371890D01*
X139461351Y-75400217D01*
X139465893Y-75427434D01*
X139471041Y-75453539D01*
X139476794Y-75478533D01*
X139483152Y-75502417D01*
X139490117Y-75525189D01*
X139497687Y-75546851D01*
X139505862Y-75567402D01*
X139514643Y-75586842D01*
X139524030Y-75605172D01*
X139534022Y-75622390D01*
X139544620Y-75638497D01*
X139555824Y-75653494D01*
X139567633Y-75667380D01*
X139580048Y-75680155D01*
X139593068Y-75691819D01*
X139606694Y-75702372D01*
X139620925Y-75711814D01*
X139635762Y-75720146D01*
X139651205Y-75727366D01*
X139667253Y-75733476D01*
X139683907Y-75738475D01*
X139701166Y-75742363D01*
X139719031Y-75745140D01*
X139737502Y-75746806D01*
X139756578Y-75747362D01*
X139775677Y-75746806D01*
X139794170Y-75745140D01*
X139812057Y-75742363D01*
X139829337Y-75738475D01*
X139846011Y-75733476D01*
X139862078Y-75727366D01*
X139877539Y-75720146D01*
X139892394Y-75711814D01*
X139906643Y-75702372D01*
X139920285Y-75691819D01*
X139933321Y-75680155D01*
X139945751Y-75667380D01*
X139957574Y-75653494D01*
X139968791Y-75638497D01*
X139979401Y-75622390D01*
X139989406Y-75605172D01*
X139998804Y-75586842D01*
X140007595Y-75567402D01*
X140015781Y-75546851D01*
X140023360Y-75525189D01*
X140030332Y-75502417D01*
X140036699Y-75478533D01*
X140042459Y-75453539D01*
X140047613Y-75427434D01*
X140052160Y-75400217D01*
X140056101Y-75371890D01*
X140059436Y-75342453D01*
X140062164Y-75311904D01*
X140064286Y-75280244D01*
X140065802Y-75247474D01*
X140066712Y-75213593D01*
X140067015Y-75178600D01*
X140066712Y-75143608D01*
X140065802Y-75109727D01*
X140064286Y-75076957D01*
X140062164Y-75045297D01*
X140059436Y-75014748D01*
X140056101Y-74985310D01*
X140052160Y-74956983D01*
X140047613Y-74929767D01*
X140042459Y-74903662D01*
X140036699Y-74878668D01*
X140030332Y-74854784D01*
X140023360Y-74832011D01*
X140015781Y-74810350D01*
X140007595Y-74789799D01*
X139998804Y-74770359D01*
X139989406Y-74752029D01*
X139979401Y-74734811D01*
X139968791Y-74718703D01*
X139957574Y-74703707D01*
X139945751Y-74689821D01*
X139933321Y-74677046D01*
X139920285Y-74665382D01*
X139906643Y-74654829D01*
X139892394Y-74645387D01*
X139877539Y-74637055D01*
X139862078Y-74629834D01*
X139846011Y-74623725D01*
X139829337Y-74618726D01*
X139812057Y-74614838D01*
X139794170Y-74612061D01*
X139775677Y-74610394D01*
X139756578Y-74609839D01*
X139737502Y-74610394D01*
X139719031Y-74612061D01*
X139701166Y-74614838D01*
X139683907Y-74618726D01*
X139667253Y-74623725D01*
X139651205Y-74629834D01*
X139635762Y-74637055D01*
X139620925Y-74645387D01*
X139606694Y-74654829D01*
X139593068Y-74665382D01*
X139580048Y-74677046D01*
X139567633Y-74689821D01*
X139555824Y-74703707D01*
X139544620Y-74718703D01*
X139534022Y-74734811D01*
X139524030Y-74752029D01*
X139514643Y-74770359D01*
X139505862Y-74789799D01*
X139497687Y-74810350D01*
X139490117Y-74832011D01*
X139483152Y-74854784D01*
X139476794Y-74878668D01*
X139471041Y-74903662D01*
X139465893Y-74929767D01*
X139461351Y-74956983D01*
X139457415Y-74985310D01*
X139454084Y-75014748D01*
X139451359Y-75045297D01*
X139449239Y-75076957D01*
X139447725Y-75109727D01*
X139446817Y-75143608D01*
X139446514Y-75178600D01*
X139209406Y-75178600D01*
X139209551Y-75152908D01*
X139209988Y-75127662D01*
X139210715Y-75102864D01*
X139211732Y-75078512D01*
X139213041Y-75054608D01*
X139214640Y-75031151D01*
X139216531Y-75008141D01*
X139218712Y-74985578D01*
X139221183Y-74963462D01*
X139223946Y-74941793D01*
X139226999Y-74920572D01*
X139230344Y-74899797D01*
X139233979Y-74879470D01*
X139237904Y-74859590D01*
X139242121Y-74840156D01*
X139246629Y-74821170D01*
X139251427Y-74802631D01*
X139256516Y-74784540D01*
X139261896Y-74766895D01*
X139267566Y-74749697D01*
X139273528Y-74732947D01*
X139279780Y-74716643D01*
X139286323Y-74700787D01*
X139293157Y-74685378D01*
X139300281Y-74670415D01*
X139307697Y-74655900D01*
X139315403Y-74641833D01*
X139323400Y-74628212D01*
X139331688Y-74615038D01*
X139340267Y-74602312D01*
X139349136Y-74590032D01*
X139358296Y-74578200D01*
X139377302Y-74555708D01*
X139397095Y-74534667D01*
X139417677Y-74515077D01*
X139439046Y-74496938D01*
X139461204Y-74480250D01*
X139484149Y-74465014D01*
X139507883Y-74451228D01*
X139532405Y-74438894D01*
X139557715Y-74428011D01*
X139583813Y-74418579D01*
X139610699Y-74410598D01*
X139638373Y-74404068D01*
X139666835Y-74398989D01*
X139696086Y-74395361D01*
X139711006Y-74394091D01*
X139726124Y-74393184D01*
X139741439Y-74392640D01*
X139756951Y-74392459D01*
X139772462Y-74392640D01*
G37*
G36*
X141450207Y-75912630D02*
G01*
X141418940Y-75940920D01*
X140454130Y-75940920D01*
X140425841Y-75912258D01*
X140425841Y-75732845D01*
X140449291Y-75685200D01*
X140874373Y-75339774D01*
X140894632Y-75323171D01*
X140914091Y-75306861D01*
X140932750Y-75290846D01*
X140950610Y-75275123D01*
X140967670Y-75259695D01*
X140983930Y-75244560D01*
X140999390Y-75229719D01*
X141014051Y-75215172D01*
X141027912Y-75200918D01*
X141040974Y-75186958D01*
X141053235Y-75173292D01*
X141064697Y-75159919D01*
X141075359Y-75146841D01*
X141085222Y-75134055D01*
X141094285Y-75121564D01*
X141102548Y-75109366D01*
X141113790Y-75090877D01*
X141123926Y-75071700D01*
X141132957Y-75051837D01*
X141140881Y-75031286D01*
X141147700Y-75010049D01*
X141151632Y-74995508D01*
X141155072Y-74980663D01*
X141158021Y-74965512D01*
X141160478Y-74950056D01*
X141162444Y-74934295D01*
X141163918Y-74918228D01*
X141164901Y-74901856D01*
X141165393Y-74885178D01*
X141165454Y-74876725D01*
X141164954Y-74854594D01*
X141163452Y-74833288D01*
X141160949Y-74812806D01*
X141157445Y-74793149D01*
X141152941Y-74774316D01*
X141147435Y-74756307D01*
X141140927Y-74739123D01*
X141133419Y-74722763D01*
X141124910Y-74707228D01*
X141115400Y-74692517D01*
X141108503Y-74683168D01*
X141097213Y-74670063D01*
X141084700Y-74658247D01*
X141070963Y-74647721D01*
X141056002Y-74638483D01*
X141039818Y-74630534D01*
X141022410Y-74623875D01*
X141003779Y-74618504D01*
X140983924Y-74614422D01*
X140962846Y-74611629D01*
X140940544Y-74610125D01*
X140924996Y-74609839D01*
X140908874Y-74610104D01*
X140893264Y-74610900D01*
X140878165Y-74612227D01*
X140849504Y-74616473D01*
X140822890Y-74622841D01*
X140798323Y-74631333D01*
X140775803Y-74641947D01*
X140755331Y-74654684D01*
X140736906Y-74669544D01*
X140720528Y-74686527D01*
X140706197Y-74705633D01*
X140693913Y-74726861D01*
X140683677Y-74750213D01*
X140675488Y-74775687D01*
X140669346Y-74803284D01*
X140665252Y-74833004D01*
X140663972Y-74848660D01*
X140663205Y-74864847D01*
X140662949Y-74881564D01*
X140634660Y-74910225D01*
X140454130Y-74910225D01*
X140425841Y-74881564D01*
X140426351Y-74853868D01*
X140427882Y-74826893D01*
X140430434Y-74800640D01*
X140434007Y-74775107D01*
X140438600Y-74750296D01*
X140444214Y-74726206D01*
X140450848Y-74702837D01*
X140458504Y-74680190D01*
X140467180Y-74658263D01*
X140476876Y-74637058D01*
X140487594Y-74616574D01*
X140499332Y-74596811D01*
X140512091Y-74577769D01*
X140525871Y-74559449D01*
X140540671Y-74541850D01*
X140556492Y-74524971D01*
X140573242Y-74508925D01*
X140590830Y-74493914D01*
X140609255Y-74479938D01*
X140628518Y-74466997D01*
X140648618Y-74455092D01*
X140669556Y-74444222D01*
X140691331Y-74434387D01*
X140713944Y-74425587D01*
X140737394Y-74417823D01*
X140761682Y-74411093D01*
X140786807Y-74405400D01*
X140812770Y-74400741D01*
X140839570Y-74397118D01*
X140867208Y-74394529D01*
X140895683Y-74392977D01*
X140924996Y-74392459D01*
X140939905Y-74392594D01*
X140969009Y-74393673D01*
X140997158Y-74395830D01*
X141024354Y-74399067D01*
X141050596Y-74403383D01*
X141075884Y-74408777D01*
X141100219Y-74415250D01*
X141123599Y-74422802D01*
X141146026Y-74431433D01*
X141167498Y-74441143D01*
X141188017Y-74451932D01*
X141207583Y-74463799D01*
X141226194Y-74476746D01*
X141243851Y-74490771D01*
X141260555Y-74505876D01*
X141276305Y-74522059D01*
X141283822Y-74530555D01*
X141298201Y-74547962D01*
X141311652Y-74565753D01*
X141324175Y-74583929D01*
X141335771Y-74602488D01*
X141346439Y-74621430D01*
X141356179Y-74640757D01*
X141364992Y-74660468D01*
X141372877Y-74680562D01*
X141379834Y-74701040D01*
X141385864Y-74721902D01*
X141390966Y-74743148D01*
X141395141Y-74764778D01*
X141398388Y-74786792D01*
X141400707Y-74809189D01*
X141402098Y-74831971D01*
X141402562Y-74855136D01*
X141402238Y-74879731D01*
X141401265Y-74903822D01*
X141399644Y-74927410D01*
X141397374Y-74950496D01*
X141394456Y-74973078D01*
X141390889Y-74995157D01*
X141386674Y-75016733D01*
X141381810Y-75037806D01*
X141376298Y-75058376D01*
X141370138Y-75078443D01*
X141363329Y-75098006D01*
X141355871Y-75117067D01*
X141347765Y-75135624D01*
X141339010Y-75153679D01*
X141329607Y-75171230D01*
X141319556Y-75188278D01*
X141308815Y-75205065D01*
X141297344Y-75221924D01*
X141285144Y-75238856D01*
X141272213Y-75255861D01*
X141258553Y-75272938D01*
X141244162Y-75290088D01*
X141229042Y-75307311D01*
X141213192Y-75324606D01*
X141196612Y-75341974D01*
X141179302Y-75359415D01*
X141161262Y-75376929D01*
X141142492Y-75394515D01*
X141122993Y-75412174D01*
X141102763Y-75429905D01*
X141081804Y-75447710D01*
X141060114Y-75465587D01*
X140747444Y-75719445D01*
X140747444Y-75723539D01*
X141418940Y-75723539D01*
X141450207Y-75751829D01*
X141450207Y-75912630D01*
G37*
G36*
X143201159Y-75459631D02*
G01*
X143172869Y-75488293D01*
X142810321Y-75488293D01*
X142796177Y-75502437D01*
X142796177Y-75864985D01*
X142767887Y-75893275D01*
X142610064Y-75893275D01*
X142581774Y-75864985D01*
X142581774Y-75502437D01*
X142567630Y-75488293D01*
X142205082Y-75488293D01*
X142176792Y-75459631D01*
X142176792Y-75299574D01*
X142205082Y-75270913D01*
X142567630Y-75270913D01*
X142581774Y-75256768D01*
X142581774Y-74897198D01*
X142610064Y-74868908D01*
X142767887Y-74868908D01*
X142796177Y-74897198D01*
X142796177Y-75256768D01*
X142810321Y-75270913D01*
X143172869Y-75270913D01*
X143201159Y-75299574D01*
X143201159Y-75459631D01*
G37*
G36*
X144273542Y-75912258D02*
G01*
X144245253Y-75940920D01*
X144064723Y-75940920D01*
X144036434Y-75912258D01*
X144036434Y-74444943D01*
X144064723Y-74416281D01*
X144245253Y-74416281D01*
X144273542Y-74444943D01*
X144273542Y-75912258D01*
G37*
G36*
X145310578Y-74416706D02*
G01*
X145338818Y-74417980D01*
X145366250Y-74420103D01*
X145392872Y-74423075D01*
X145418687Y-74426896D01*
X145443693Y-74431566D01*
X145467891Y-74437085D01*
X145491280Y-74443454D01*
X145513860Y-74450672D01*
X145535633Y-74458738D01*
X145556597Y-74467654D01*
X145576752Y-74477420D01*
X145596099Y-74488034D01*
X145614638Y-74499497D01*
X145632368Y-74511810D01*
X145649290Y-74524971D01*
X145665291Y-74539011D01*
X145680260Y-74553959D01*
X145694197Y-74569813D01*
X145707101Y-74586575D01*
X145718973Y-74604244D01*
X145729813Y-74622820D01*
X145739620Y-74642304D01*
X145748395Y-74662695D01*
X145756137Y-74683993D01*
X145762848Y-74706199D01*
X145768526Y-74729312D01*
X145773171Y-74753332D01*
X145776784Y-74778260D01*
X145779365Y-74804094D01*
X145780914Y-74830837D01*
X145781430Y-74858486D01*
X145781087Y-74880260D01*
X145780057Y-74901472D01*
X145778342Y-74922124D01*
X145775940Y-74942214D01*
X145772851Y-74961742D01*
X145769077Y-74980710D01*
X145764616Y-74999116D01*
X145759469Y-75016961D01*
X145753635Y-75034245D01*
X145747115Y-75050968D01*
X145739909Y-75067129D01*
X145732017Y-75082729D01*
X145723438Y-75097768D01*
X145714173Y-75112245D01*
X145704222Y-75126162D01*
X145693585Y-75139517D01*
X145682429Y-75152265D01*
X145670832Y-75164456D01*
X145658793Y-75176088D01*
X145646312Y-75187162D01*
X145633389Y-75197677D01*
X145620023Y-75207634D01*
X145606216Y-75217033D01*
X145591967Y-75225873D01*
X145577276Y-75234155D01*
X145562142Y-75241879D01*
X145546567Y-75249044D01*
X145530550Y-75255651D01*
X145514090Y-75261700D01*
X145497189Y-75267190D01*
X145479845Y-75272122D01*
X145462060Y-75276496D01*
X145462060Y-75285429D01*
X145760213Y-75757040D01*
X145760213Y-75915236D01*
X145731924Y-75943897D01*
X145638495Y-75943897D01*
X145591222Y-75919703D01*
X145209318Y-75319674D01*
X145172096Y-75300691D01*
X144841559Y-75300691D01*
X144827414Y-75315207D01*
X144827414Y-75915236D01*
X144799125Y-75943897D01*
X144618596Y-75943897D01*
X144590306Y-75915236D01*
X144590306Y-75068794D01*
X144827414Y-75068794D01*
X144841559Y-75083311D01*
X145281158Y-75083311D01*
X145298302Y-75083110D01*
X145314839Y-75082508D01*
X145330767Y-75081505D01*
X145346088Y-75080100D01*
X145367930Y-75077241D01*
X145388404Y-75073479D01*
X145407511Y-75068813D01*
X145425250Y-75063245D01*
X145441622Y-75056774D01*
X145456626Y-75049400D01*
X145470263Y-75041123D01*
X145482532Y-75031943D01*
X145493575Y-75021630D01*
X145503531Y-75010094D01*
X145512401Y-74997334D01*
X145520185Y-74983350D01*
X145526883Y-74968143D01*
X145532495Y-74951713D01*
X145537021Y-74934058D01*
X145540460Y-74915181D01*
X145542813Y-74895079D01*
X145544081Y-74873755D01*
X145544322Y-74858858D01*
X145544081Y-74843917D01*
X145542813Y-74822530D01*
X145540460Y-74802373D01*
X145537021Y-74783446D01*
X145532495Y-74765749D01*
X145526883Y-74749283D01*
X145520185Y-74734046D01*
X145512401Y-74720040D01*
X145503531Y-74707263D01*
X145493575Y-74695717D01*
X145482532Y-74685401D01*
X145470263Y-74676154D01*
X145456626Y-74667818D01*
X145441622Y-74660390D01*
X145425250Y-74653872D01*
X145407511Y-74648264D01*
X145388404Y-74643565D01*
X145367930Y-74639775D01*
X145346088Y-74636895D01*
X145330767Y-74635480D01*
X145314839Y-74634470D01*
X145298302Y-74633864D01*
X145281158Y-74633661D01*
X144841559Y-74633661D01*
X144827414Y-74648178D01*
X144827414Y-75068794D01*
X144590306Y-75068794D01*
X144590306Y-74444943D01*
X144618596Y-74416281D01*
X145281530Y-74416281D01*
X145310578Y-74416706D01*
G37*
D12*
%TO.C,A1*%
X151240000Y-66040000D02*
X151240000Y-111760000D01*
X128160000Y-66040000D02*
X128160000Y-111760000D01*
X148590000Y-114410000D02*
X130810000Y-114410000D01*
X127840000Y-70850000D02*
X127840000Y-68850000D01*
X148590000Y-63390000D02*
X130810000Y-63390000D01*
X128160000Y-111760000D02*
G75*
G03*
X130810000Y-114410000I2650000J0D01*
G01*
X130810000Y-63390000D02*
G75*
G03*
X128160000Y-66040000I0J-2650000D01*
G01*
X151240000Y-66040000D02*
G75*
G03*
X148590000Y-63390000I-2650000J0D01*
G01*
X148590000Y-114410000D02*
G75*
G03*
X151240000Y-111760000I0J2650000D01*
G01*
%TD*%
M02*
